SplineFontDB: 1.0
FontName: ocrb5
FullName: ocrb5
FamilyName: ocrb5
Weight: Regular
Copyright: Generated from MetaFont bitmap by mftrace 1.1.17, http://www.xs4all.nl/~hanwen/mftrace/ 
Version: 001.001
ItalicAngle: 0
UnderlinePosition: -100
UnderlineWidth: 50
Ascent: 800
Descent: 200
NeedsXUIDChange: 1
UniqueID: 4126344
OS2Version: 0
OS2_WeightWidthSlopeOnly: 0
OS2_UseTypoMetrics: 0
CreationTime: 1293211973
ModificationTime: 1294309040
OS2TypoAscent: 0
OS2TypoAOffset: 1
OS2TypoDescent: 0
OS2TypoDOffset: 1
OS2TypoLinegap: 0
OS2WinAscent: 0
OS2WinAOffset: 1
OS2WinDescent: 0
OS2WinDOffset: 1
HheadAscent: 0
HheadAOffset: 1
HheadDescent: 0
HheadDOffset: 1
OS2Vendor: 'PfEd'
ScriptLang: 1
 1 latn 1 dflt 
DesignSize: 50
Encoding: Custom
UnicodeInterp: none
NameList: Adobe Glyph List
DisplaySize: -24
AntiAlias: 1
FitToEm: 1
WinInfo: 0 40 13
BeginPrivate: 3
lenIV 1 4
BlueValues 2 []
ForceBold 5 false
EndPrivate
BeginChars: 256 138
StartChar: grave
Encoding: 0 96 0
Width: 723
Flags: W
Fore
182 709 m 0
 184 709 272 710 379 710 c 2
 572 710 l 1
 578 707 l 2
 595 700 606 688 610 670 c 0
 611 665 611 654 611 597 c 0
 610 531 610 530 608 525 c 0
 595 490 554 480 528 504 c 0
 521 510 517 516 514 525 c 0
 512 530 512 532 511 570 c 2
 511 610 l 1
 376 610 l 1
 241 610 l 1
 241 329 l 2
 241 24 241 40 236 29 c 0
 227 12 210 2 191 2 c 0
 167 2 147 18 142 41 c 0
 140 51 140 664 142 672 c 0
 147 691 162 705 182 709 c 0
EndSplineSet
EndChar
StartChar: acute
Encoding: 1 180 1
Width: 723
Flags: W
Fore
350 703 m 0
 355 704 368 704 373 703 c 0
 386 700 400 689 405 678 c 0
 407 674 439 560 495 361 c 2
 581 50 l 1
 581 40 l 2
 581 28 579 21 574 13 c 0
 567 2 554 -6 542 -9 c 0
 538 -10 486 -10 361 -10 c 0
 168 -10 179 -10 167 -4 c 0
 155 3 145 16 142 30 c 0
 139 42 136 31 228 361 c 0
 286 570 315 673 317 677 c 0
 323 689 337 700 350 703 c 0
414 277 m 0
 386 380 362 465 362 466 c 0
 362 468 360 464 357 451 c 0
 354 442 330 357 304 263 c 2
 256 91 l 1
 361 90 l 1
 466 90 l 1
 466 91 443 175 414 277 c 0
EndSplineSet
EndChar
StartChar: circumflex
Encoding: 2 710 2
Width: 723
Flags: W
Fore
347 718 m 0
 354 719 382 718 391 717 c 0
 476 702 546 630 582 519 c 0
 605 449 613 371 604 296 c 0
 597 229 576 162 546 110 c 0
 516 59 477 21 433 2 c 0
 407 -9 389 -12 362 -12 c 0
 346 -12 340 -12 331 -10 c 0
 291 -3 256 16 225 47 c 0
 211 61 200 75 189 90 c 0
 133 173 106 297 118 411 c 0
 133 558 200 669 294 706 c 0
 311 713 324 716 347 718 c 0
386 616 m 0
 379 618 375 618 364 619 c 0
 355 619 349 619 345 618 c 0
 315 611 289 591 267 556 c 0
 241 517 224 463 217 400 c 0
 215 385 215 327 217 313 c 0
 228 214 265 134 315 101 c 0
 345 82 378 82 408 101 c 0
 458 134 495 214 506 313 c 0
 508 327 508 385 506 400 c 0
 499 463 482 517 456 556 c 0
 436 588 413 607 386 616 c 0
295 402 m 1
 297 402 326 403 364 403 c 2
 429 403 l 1
 435 400 l 2
 444 396 450 392 455 386 c 0
 466 374 471 356 467 341 c 0
 462 325 451 313 435 306 c 2
 429 304 l 1
 366 303 l 2
 322 303 300 303 296 304 c 0
 283 306 270 315 263 326 c 0
 247 351 256 385 283 398 c 2
 295 402 l 1
EndSplineSet
EndChar
StartChar: tilde
Encoding: 3 732 3
Width: 723
Flags: W
Fore
350 703 m 0
 355 704 368 704 373 703 c 0
 386 700 400 689 406 677 c 0
 408 672 412 659 420 623 c 2
 487 332 l 1
 544 89 l 1
 549 87 l 2
 563 82 573 71 579 57 c 0
 582 48 582 32 579 24 c 0
 573 7 560 -4 543 -8 c 0
 534 -11 475 -11 465 -9 c 0
 442 -4 426 16 426 40 c 0
 426 53 430 64 440 75 c 2
 443 79 l 1
 402 256 l 2
 380 353 361 433 361 432 c 2
 320 255 l 1
 279 79 l 1
 283 75 l 2
 307 51 300 10 270 -5 c 0
 259 -10 254 -10 215 -10 c 0
 182 -9 180 -9 175 -7 c 0
 146 4 133 36 146 63 c 0
 152 73 164 84 174 87 c 0
 177 88 179 89 179 90 c 2
 180 91 209 219 245 375 c 0
 282 531 312 662 313 666 c 0
 314 670 317 677 319 680 c 0
 325 690 338 700 350 703 c 0
EndSplineSet
EndChar
StartChar: dieresis
Encoding: 4 168 4
Width: 723
Flags: W
Fore
165 698 m 1
 167 698 255 699 361 699 c 0
 571 699 559 699 572 693 c 0
 587 686 599 667 599 649 c 0
 599 626 583 606 560 600 c 0
 554 599 529 599 358 599 c 2
 164 600 l 1
 158 602 l 2
 137 610 124 628 124 649 c 0
 124 673 141 693 165 698 c 1
224 413 m 1
 227 413 281 414 364 414 c 2
 500 414 l 1
 505 411 l 1
 526 403 539 385 539 364 c 0
 539 343 526 325 505 317 c 2
 500 315 l 1
 366 314 l 2
 271 314 230 314 225 315 c 0
 211 317 197 327 191 338 c 0
 176 363 185 396 211 408 c 0
 215 410 221 412 224 413 c 1
165 100 m 1
 167 100 255 101 361 101 c 0
 571 101 559 101 572 95 c 0
 587 88 599 69 599 51 c 0
 599 28 583 8 560 2 c 0
 554 1 529 1 358 1 c 2
 164 2 l 1
 158 4 l 2
 137 12 124 30 124 51 c 0
 124 75 141 95 165 100 c 1
EndSplineSet
EndChar
StartChar: hungarumlaut
Encoding: 5 733 5
Width: 723
Flags: W
Fore
151 709 m 0
 159 710 560 711 570 709 c 0
 587 706 602 693 608 675 c 0
 615 654 605 628 586 617 c 2
 582 615 l 1
 582 325 l 2
 582 8 582 30 576 17 c 0
 573 10 562 -1 555 -4 c 0
 540 -12 524 -12 509 -4 c 0
 502 -1 491 10 488 17 c 0
 482 30 482 9 482 323 c 2
 482 610 l 1
 362 610 l 1
 241 610 l 1
 241 323 l 2
 241 9 241 30 235 17 c 0
 232 10 221 -1 214 -4 c 0
 199 -12 183 -12 168 -4 c 0
 161 -1 150 10 147 17 c 0
 141 30 141 8 141 325 c 2
 141 615 l 1
 138 616 l 1
 128 622 119 633 115 645 c 0
 106 672 123 702 151 709 c 0
EndSplineSet
EndChar
StartChar: ring
Encoding: 6 730 6
Width: 723
Flags: W
Fore
199 698 m 0
 201 698 281 699 378 699 c 0
 570 699 559 699 572 693 c 0
 584 687 595 673 598 659 c 0
 599 652 599 619 598 611 c 0
 596 598 586 584 575 578 c 0
 551 564 520 571 506 595 c 2
 504 599 l 1
 392 599 l 2
 325 599 280 599 280 598 c 1
 324 480 l 2
 353 399 367 361 368 356 c 1
 368 344 l 1
 367 339 353 301 324 220 c 2
 280 102 l 1
 280 101 325 101 392 101 c 2
 504 101 l 1
 506 105 l 2
 510 111 518 119 523 122 c 0
 539 132 559 132 575 122 c 0
 586 116 596 102 598 89 c 0
 599 81 599 48 598 41 c 0
 594 22 579 7 560 2 c 0
 554 1 531 1 375 1 c 2
 198 2 l 1
 191 4 l 2
 169 13 157 32 158 54 c 0
 159 62 161 69 212 205 c 0
 241 283 265 347 265 349 c 0
 265 350 244 407 212 494 c 0
 161 631 159 638 158 646 c 0
 158 650 158 656 159 659 c 0
 164 679 179 694 199 698 c 0
EndSplineSet
EndChar
StartChar: caron
Encoding: 7 711 7
Width: 723
Flags: W
Fore
258 676 m 0
 292 682 327 671 355 648 c 2
 361 643 l 1
 371 651 l 2
 387 663 406 672 424 675 c 0
 485 687 544 652 563 593 c 0
 567 581 568 570 567 563 c 0
 560 521 511 505 483 534 c 0
 476 541 472 548 469 559 c 0
 466 571 458 578 448 578 c 0
 433 578 421 564 414 540 c 2
 412 531 l 1
 411 279 l 2
 411 71 410 27 409 24 c 0
 403 5 390 -7 372 -11 c 0
 364 -13 358 -13 350 -11 c 0
 331 -7 317 7 313 26 c 0
 311 32 311 65 311 279 c 2
 311 525 l 1
 309 536 l 2
 303 562 291 578 276 578 c 0
 270 578 266 576 261 572 c 0
 257 569 255 566 252 554 c 0
 243 525 211 511 183 524 c 0
 171 530 163 540 158 553 c 0
 155 561 155 576 158 587 c 0
 172 635 210 669 258 676 c 0
EndSplineSet
EndChar
StartChar: breve
Encoding: 8 728 8
Width: 723
Flags: W
Fore
322 660 m 0
 330 662 391 663 400 661 c 0
 423 656 439 636 439 612 c 0
 439 594 429 576 414 568 c 1
 411 567 l 1
 411 552 l 1
 411 537 l 1
 425 534 l 2
 475 522 520 494 551 455 c 0
 566 435 582 407 590 385 c 0
 615 319 618 233 598 164 c 0
 576 88 526 29 457 2 c 0
 445 -3 427 -8 418 -10 c 2
 411 -11 l 1
 411 -26 l 1
 411 -40 l 1
 414 -41 l 1
 429 -49 439 -67 439 -85 c 0
 439 -109 423 -129 400 -134 c 0
 390 -136 331 -136 322 -133 c 0
 305 -129 292 -118 286 -101 c 0
 283 -93 283 -77 286 -68 c 0
 290 -57 296 -50 306 -43 c 2
 311 -40 l 1
 311 -26 l 1
 311 -11 l 1
 305 -10 l 2
 296 -8 279 -3 267 2 c 0
 190 32 136 101 119 191 c 0
 108 247 111 311 125 363 c 0
 151 451 214 514 298 534 c 2
 311 537 l 1
 311 552 l 1
 311 567 l 1
 307 570 l 2
 297 576 290 584 286 596 c 0
 284 600 284 603 284 612 c 0
 284 621 284 624 286 629 c 0
 292 645 305 656 322 660 c 0
430 427 m 0
 427 429 421 431 418 432 c 2
 411 435 l 1
 411 263 l 1
 411 91 l 1
 417 93 l 2
 435 100 450 110 464 124 c 0
 490 150 506 189 510 237 c 0
 511 253 511 288 509 303 c 0
 504 336 495 360 480 382 c 0
 469 400 449 417 430 427 c 0
311 263 m 2
 311 399 311 434 310 434 c 0
 308 434 296 429 288 425 c 0
 258 408 235 378 223 342 c 0
 216 320 213 300 212 272 c 0
 211 218 220 177 243 144 c 0
 251 132 266 116 277 108 c 0
 285 103 303 94 308 92 c 1
 311 92 l 1
 311 263 l 2
EndSplineSet
EndChar
StartChar: macron
Encoding: 9 175 9
Width: 723
Flags: W
Fore
348 631 m 0
 373 638 399 624 408 599 c 1
 411 594 l 1
 411 357 l 1
 412 121 l 1
 418 133 l 2
 431 160 440 198 445 252 c 0
 452 325 463 466 467 544 c 0
 467 562 469 577 470 581 c 0
 474 597 484 609 501 616 c 0
 510 619 524 620 534 616 c 0
 547 612 556 603 563 591 c 0
 569 578 569 574 563 481 c 0
 559 411 547 266 542 227 c 0
 534 152 519 103 492 61 c 0
 472 32 449 11 420 -3 c 2
 411 -7 l 1
 411 -34 l 2
 411 -64 410 -70 405 -80 c 0
 398 -94 383 -104 368 -106 c 0
 343 -110 318 -93 312 -67 c 0
 311 -62 311 -53 311 -33 c 2
 311 -6 l 1
 299 -1 l 2
 266 15 239 44 218 83 c 0
 201 117 189 159 182 213 c 0
 175 265 161 454 156 549 c 0
 155 571 155 574 156 580 c 0
 161 597 171 609 188 616 c 0
 197 619 211 620 221 616 c 0
 228 614 237 608 241 603 c 0
 245 599 251 589 253 584 c 0
 254 580 255 565 257 536 c 0
 261 456 264 415 272 318 c 0
 279 232 283 204 291 174 c 0
 295 156 298 148 305 134 c 2
 311 122 l 1
 311 358 l 1
 312 594 l 1
 314 599 l 2
 320 615 333 627 348 631 c 0
EndSplineSet
EndChar
StartChar: dotaccent
Encoding: 10 729 10
Width: 723
Flags: W
Fore
343 817 m 0
 364 819 392 817 415 813 c 0
 490 797 549 752 582 686 c 0
 602 644 610 605 610 555 c 0
 610 522 608 500 600 469 c 0
 598 460 576 367 551 263 c 2
 507 73 l 1
 512 67 l 2
 530 48 529 18 510 -1 c 0
 497 -14 488 -16 458 -16 c 0
 438 -15 436 -15 430 -13 c 0
 421 -9 416 -5 410 1 c 0
 401 11 396 24 397 37 c 0
 398 42 415 117 449 265 c 2
 503 492 l 2
 512 526 513 566 506 600 c 0
 500 633 484 662 464 681 c 0
 444 698 423 709 394 715 c 0
 385 717 380 717 362 717 c 0
 338 717 330 716 310 710 c 0
 275 698 245 673 229 640 c 0
 218 618 213 598 212 572 c 0
 211 544 214 526 228 456 c 0
 254 323 287 183 320 64 c 0
 326 40 327 33 325 24 c 0
 320 4 306 -10 286 -15 c 0
 281 -16 275 -16 259 -16 c 0
 240 -15 237 -15 232 -13 c 0
 211 -6 198 13 198 34 c 0
 198 46 202 58 210 67 c 2
 214 71 l 1
 205 108 l 2
 175 225 152 323 130 434 c 0
 115 511 111 540 112 572 c 0
 115 635 135 689 171 733 c 0
 203 770 248 798 299 810 c 0
 310 813 332 817 343 817 c 0
EndSplineSet
EndChar
StartChar: cedilla
Encoding: 11 184 11
Width: 723
Flags: W
Fore
353 698 m 0
 360 699 361 699 369 698 c 0
 373 697 378 696 383 693 c 0
 390 690 393 687 466 615 c 0
 513 568 543 537 545 534 c 0
 560 511 554 480 531 465 c 0
 516 455 498 454 481 462 c 0
 475 465 471 469 443 497 c 2
 411 528 l 1
 411 282 l 2
 411 13 411 30 405 17 c 0
 402 10 391 -1 384 -4 c 0
 369 -12 353 -12 338 -4 c 0
 331 -1 320 10 317 17 c 0
 311 30 311 13 311 281 c 2
 311 527 l 1
 281 498 l 2
 251 468 247 464 237 460 c 0
 229 457 215 456 206 458 c 0
 188 464 174 478 171 497 c 0
 169 505 169 508 170 516 c 0
 174 531 170 527 253 610 c 0
 294 652 330 688 333 690 c 0
 338 693 346 697 353 698 c 0
EndSplineSet
EndChar
StartChar: ogonek
Encoding: 12 731 12
Width: 723
Flags: W
Fore
353 698 m 0
 374 702 396 690 406 671 c 0
 411 660 411 673 411 406 c 2
 411 160 l 1
 443 192 l 2
 472 221 476 224 482 227 c 0
 494 232 503 233 515 230 c 0
 528 227 540 219 546 208 c 0
 556 191 556 171 545 155 c 0
 543 151 516 124 467 74 c 0
 385 -7 387 -5 372 -9 c 0
 359 -12 344 -9 334 -2 c 0
 331 0 295 36 253 77 c 0
 181 150 178 153 175 160 c 0
 168 175 168 190 174 204 c 0
 180 216 189 224 203 229 c 0
 207 231 211 231 219 231 c 0
 229 231 236 230 244 225 c 2
 247 224 262 210 280 192 c 2
 311 161 l 1
 311 407 l 2
 311 671 311 660 316 670 c 0
 324 685 337 695 353 698 c 0
EndSplineSet
EndChar
StartChar: quotesinglbase
Encoding: 13 8218 13
Width: 723
Flags: W
Fore
349 683 m 1
 351 683 357 684 363 684 c 0
 374 683 374 683 382 679 c 0
 397 672 407 659 410 644 c 0
 412 634 411 547 410 539 c 0
 405 519 389 503 368 500 c 0
 343 496 318 513 312 539 c 0
 311 547 310 634 312 644 c 0
 314 652 319 663 325 669 c 0
 331 675 342 681 349 683 c 1
EndSplineSet
EndChar
StartChar: guilsinglleft
Encoding: 14 8249 14
Width: 723
Flags: W
Fore
330 442 m 1
 332 442 346 443 361 443 c 0
 391 443 396 442 407 437 c 0
 414 434 425 423 428 416 c 0
 433 405 434 401 434 370 c 0
 434 339 433 335 428 324 c 0
 425 317 414 306 407 303 c 0
 396 297 390 297 358 297 c 0
 331 298 328 298 323 300 c 0
 307 306 295 318 291 334 c 0
 288 342 288 398 291 406 c 0
 296 425 311 438 330 442 c 1
353 268 m 2
 354 269 359 269 364 268 c 1
 381 268 397 258 405 242 c 0
 411 230 411 242 411 25 c 0
 411 -114 411 -175 410 -180 c 0
 405 -203 385 -220 361 -220 c 0
 337 -220 317 -203 312 -180 c 0
 311 -175 311 -114 311 25 c 0
 311 242 311 230 317 242 c 0
 324 255 338 266 353 268 c 2
EndSplineSet
EndChar
StartChar: guilsinglright
Encoding: 15 8250 15
Width: 723
Flags: W
Fore
326 557 m 1
 330 559 339 559 361 559 c 0
 393 559 398 558 407 553 c 0
 414 549 425 539 428 532 c 0
 433 521 434 517 434 487 c 0
 434 456 433 452 428 441 c 0
 424 433 414 423 406 419 c 0
 396 415 391 414 362 414 c 0
 345 414 332 414 329 415 c 0
 316 418 301 428 295 440 c 0
 289 451 289 453 289 487 c 0
 289 511 289 518 291 522 c 0
 296 539 310 553 326 557 c 1
349 333 m 1
 351 333 357 334 363 334 c 0
 374 333 374 333 382 329 c 0
 397 322 407 309 410 294 c 0
 411 286 411 199 410 188 c 0
 407 164 397 141 380 118 c 0
 371 106 351 86 330 68 c 0
 297 42 286 29 278 14 c 0
 271 0 270 -8 270 -29 c 0
 269 -52 271 -60 277 -72 c 0
 293 -104 331 -122 379 -121 c 0
 387 -120 397 -119 402 -119 c 1
 443 -110 469 -90 479 -58 c 0
 481 -53 481 -48 482 -35 c 0
 483 -17 484 -11 490 -2 c 0
 495 5 503 13 511 17 c 0
 540 30 573 14 580 -17 c 0
 584 -30 582 -61 577 -80 c 0
 573 -91 568 -106 563 -115 c 0
 534 -174 475 -211 397 -219 c 0
 372 -222 349 -221 323 -216 c 0
 282 -207 244 -187 219 -160 c 0
 201 -141 188 -120 180 -98 c 0
 168 -63 166 -14 175 23 c 0
 187 67 211 99 262 142 c 0
 292 167 305 181 310 194 c 0
 311 197 311 207 311 243 c 0
 311 270 311 290 312 294 c 0
 314 302 319 313 325 319 c 0
 331 325 342 331 349 333 c 1
EndSplineSet
EndChar
StartChar: quotedblleft
Encoding: 16 8220 16
Width: 723
Flags: W
Fore
221 521 m 1
 223 521 265 522 320 522 c 0
 400 522 415 522 421 520 c 0
 440 516 454 502 458 483 c 0
 461 473 461 36 458 26 c 0
 454 7 440 -7 421 -11 c 0
 413 -13 407 -13 399 -11 c 0
 380 -7 366 7 362 26 c 0
 360 32 360 59 360 227 c 2
 360 422 l 1
 294 422 l 2
 251 422 225 422 221 423 c 0
 208 425 196 434 189 445 c 0
 173 470 182 504 209 517 c 2
 221 521 l 1
EndSplineSet
EndChar
StartChar: quotedblright
Encoding: 17 8221 17
Width: 723
Flags: W
Fore
248 520 m 0
 257 523 406 523 415 520 c 0
 434 516 448 502 453 482 c 0
 454 477 454 447 454 236 c 0
 453 -24 454 -11 448 -38 c 0
 436 -95 401 -140 351 -165 c 0
 319 -180 288 -184 243 -181 c 0
 233 -180 218 -179 209 -178 c 0
 200 -178 190 -176 188 -176 c 1
 164 -169 149 -144 153 -120 c 0
 156 -105 166 -91 180 -84 c 0
 193 -77 202 -77 243 -81 c 0
 278 -84 292 -82 309 -74 c 0
 318 -70 320 -68 328 -60 c 0
 344 -44 351 -28 353 2 c 0
 354 9 354 94 354 218 c 2
 354 422 l 1
 304 422 l 2
 264 422 253 422 248 424 c 1
 231 428 218 439 212 456 c 0
 209 464 209 480 212 489 c 0
 218 505 231 516 248 520 c 0
EndSplineSet
EndChar
StartChar: quotedblbase
Encoding: 18 8222 18
Width: 723
Flags: W
Fore
302 684 m 0
 318 686 336 679 346 666 c 0
 350 660 403 578 406 571 c 0
 411 561 412 548 409 537 c 0
 403 513 379 496 355 500 c 0
 343 502 334 506 325 515 c 0
 320 521 264 610 261 617 c 0
 256 631 257 644 263 657 c 0
 270 672 285 682 302 684 c 0
EndSplineSet
EndChar
StartChar: guillemotleft
Encoding: 19 171 19
Width: 723
Flags: W
Fore
410 684 m 0
 433 686 455 672 462 651 c 0
 465 644 466 631 464 624 c 0
 462 616 460 611 430 563 c 0
 409 531 401 519 396 514 c 0
 366 483 312 505 312 549 c 0
 312 563 314 567 337 605 c 0
 381 674 378 669 388 676 c 0
 395 680 402 683 410 684 c 0
EndSplineSet
EndChar
StartChar: guillemotright
Encoding: 20 187 20
Width: 723
Flags: W
Fore
153 934 m 0
 165 936 180 933 190 926 c 0
 194 924 219 896 278 831 c 2
 361 740 l 1
 366 745 l 2
 394 776 528 922 531 925 c 0
 537 930 545 933 554 934 c 0
 563 936 574 934 583 929 c 0
 589 926 598 918 603 911 c 0
 610 900 612 883 608 870 c 0
 606 865 587 835 503 709 c 0
 438 612 398 552 395 550 c 0
 385 541 375 537 362 537 c 0
 348 537 338 541 328 550 c 0
 324 553 294 598 220 709 c 0
 106 879 113 869 113 886 c 0
 113 900 117 910 128 920 c 0
 134 927 145 932 153 934 c 0
EndSplineSet
EndChar
StartChar: endash
Encoding: 21 8211 21
Width: 723
Flags: W
Fore
153 934 m 0
 170 937 185 932 197 920 c 0
 205 912 209 903 211 893 c 0
 213 876 217 858 220 851 c 0
 227 831 239 811 255 795 c 0
 268 782 279 774 293 767 c 0
 314 756 332 751 357 750 c 0
 374 750 386 751 402 755 c 0
 461 772 505 825 511 886 c 0
 512 901 517 912 527 921 c 0
 534 928 541 932 551 934 c 0
 559 935 562 935 570 933 c 1
 580 932 587 928 594 922 c 0
 605 912 610 900 610 885 c 0
 610 857 599 816 583 785 c 0
 545 713 476 664 395 652 c 0
 376 650 344 650 326 653 c 0
 282 660 245 675 210 702 c 0
 161 739 127 794 116 855 c 0
 111 880 111 891 116 903 c 0
 122 918 137 931 153 934 c 0
EndSplineSet
EndChar
StartChar: emdash
Encoding: 22 8212 22
Width: 723
Flags: W
Fore
167 632 m 1
 170 632 245 633 364 633 c 2
 557 633 l 1
 563 630 l 2
 584 622 596 604 596 583 c 0
 596 562 584 544 563 536 c 2
 557 534 l 1
 366 533 l 2
 230 533 173 533 168 534 c 0
 159 535 149 541 143 546 c 0
 121 567 121 599 143 620 c 0
 148 625 159 630 167 632 c 1
EndSplineSet
EndChar
StartChar: cwm
Encoding: 23 -1 23
Width: 723
Flags: W
Fore
330 618 m 0
 332 618 347 619 364 619 c 0
 393 618 395 618 401 616 c 0
 417 610 428 597 432 581 c 0
 435 572 435 521 432 512 c 0
 430 503 426 496 420 490 c 0
 414 483 406 478 397 476 c 0
 389 473 334 473 326 476 c 0
 309 481 296 494 291 511 c 0
 289 515 289 522 289 547 c 0
 289 571 289 578 291 582 c 1
 296 601 310 614 330 618 c 0
EndSplineSet
EndChar
StartChar: perthousand
Encoding: 24 8240 24
Width: 723
Flags: W
Fore
337 59 m 0
 344 61 355 61 362 60 c 1
 378 55 391 43 397 27 c 0
 399 22 399 19 400 -10 c 2
 401 -42 l 1
 408 -45 l 2
 457 -64 493 -107 503 -159 c 0
 505 -172 505 -198 503 -211 c 0
 501 -222 495 -239 490 -250 c 0
 481 -269 462 -292 445 -304 c 0
 425 -319 403 -329 380 -332 c 0
 356 -336 341 -335 328 -329 c 0
 297 -313 291 -273 316 -248 c 0
 326 -239 337 -235 351 -235 c 0
 368 -235 379 -231 390 -220 c 0
 400 -210 405 -199 405 -185 c 0
 405 -171 400 -160 390 -150 c 0
 379 -139 368 -135 352 -135 c 0
 329 -135 311 -123 303 -101 c 0
 301 -96 301 -95 301 -37 c 0
 301 21 301 22 303 27 c 0
 309 43 322 55 337 59 c 0
EndSplineSet
EndChar
StartChar: dotlessi
Encoding: 25 305 25
Width: 723
Flags: W
Fore
338 766 m 0
 345 767 389 766 399 765 c 0
 452 759 495 739 529 706 c 0
 551 683 567 657 577 628 c 0
 602 551 583 467 526 413 c 2
 518 405 l 1
 521 404 l 1
 527 400 544 386 552 377 c 0
 590 338 608 288 611 221 c 0
 613 138 584 65 531 26 c 0
 504 6 467 -7 437 -7 c 0
 408 -7 386 14 386 43 c 0
 386 68 404 89 431 92 c 0
 451 94 462 98 473 107 c 0
 490 121 502 145 508 176 c 0
 510 186 510 191 510 213 c 0
 510 235 510 239 508 249 c 0
 501 284 487 307 463 323 c 0
 446 334 430 339 406 340 c 0
 396 340 389 341 386 342 c 0
 371 348 360 358 354 374 c 0
 352 378 352 382 351 394 c 0
 351 411 352 420 357 429 c 0
 364 445 378 454 398 457 c 0
 423 460 442 470 458 486 c 0
 477 505 487 528 488 557 c 0
 488 568 488 572 486 581 c 0
 481 604 473 620 458 635 c 0
 443 650 426 659 402 664 c 0
 393 666 386 666 370 667 c 0
 335 668 318 665 300 656 c 0
 261 637 240 594 236 524 c 0
 235 513 235 416 235 270 c 0
 235 64 235 32 233 26 c 0
 229 7 215 -7 196 -11 c 0
 188 -13 182 -13 174 -11 c 0
 155 -7 141 7 136 27 c 0
 135 32 135 62 135 281 c 0
 136 551 135 536 141 573 c 0
 146 606 157 640 172 665 c 0
 192 702 223 730 259 747 c 0
 282 758 300 763 338 766 c 0
EndSplineSet
EndChar
StartChar: dotlessj
Encoding: 26 63166 26
Width: 723
Flags: W
Fore
176 541 m 0
 210 544 255 539 286 529 c 0
 301 524 321 514 333 505 c 0
 344 497 362 479 369 469 c 2
 374 462 l 1
 388 476 l 2
 425 513 464 533 513 540 c 0
 529 542 567 542 583 540 c 0
 600 538 622 533 635 529 c 0
 708 504 755 446 771 363 c 0
 774 348 779 314 780 298 c 0
 782 282 781 274 775 263 c 0
 771 254 762 245 754 241 c 0
 741 235 750 235 574 235 c 2
 413 235 l 1
 413 230 l 1
 414 227 415 218 417 210 c 0
 426 163 447 127 473 109 c 0
 488 99 506 92 529 87 c 0
 543 84 579 84 595 86 c 0
 619 91 630 95 643 107 c 0
 654 117 662 122 674 123 c 0
 710 128 740 92 727 57 c 0
 724 49 721 45 713 37 c 0
 684 7 644 -10 585 -15 c 0
 548 -18 503 -12 469 0 c 0
 454 6 432 17 421 24 c 2
 411 31 l 1
 409 25 l 2
 405 7 390 -7 372 -11 c 0
 364 -13 358 -13 350 -11 c 0
 327 -6 311 14 311 39 c 2
 311 45 l 1
 300 37 l 2
 266 10 226 -7 185 -13 c 0
 107 -25 29 8 -10 70 c 0
 -30 100 -39 135 -35 170 c 0
 -28 236 12 286 79 313 c 0
 119 329 164 334 276 337 c 2
 311 337 l 1
 311 345 l 2
 309 365 302 390 294 403 c 0
 279 428 252 440 208 442 c 0
 187 442 173 441 156 437 c 0
 131 430 117 423 89 404 c 0
 80 398 73 395 64 394 c 0
 49 393 36 398 25 409 c 0
 9 425 6 446 15 466 c 0
 19 474 27 482 40 491 c 0
 81 520 126 536 176 541 c 0
585 439 m 0
 574 441 539 443 526 441 c 0
 517 440 502 436 494 432 c 0
 463 417 434 383 421 345 c 2
 418 336 l 1
 546 335 l 1
 674 335 l 1
 674 336 674 339 673 343 c 0
 663 398 635 429 585 439 c 0
311 217 m 1
 311 237 l 1
 291 237 l 2
 262 237 220 235 197 234 c 0
 151 231 128 227 105 216 c 0
 78 202 64 182 64 155 c 0
 64 125 90 97 127 87 c 0
 136 85 138 85 155 85 c 0
 171 85 173 85 184 88 c 0
 197 91 210 97 222 104 c 0
 249 119 278 149 304 187 c 2
 311 197 l 1
 311 217 l 1
EndSplineSet
EndChar
StartChar: ff
Encoding: 27 64256 27
Width: 723
Flags: W
Fore
143 541 m 1
 145 542 156 542 167 541 c 0
 243 540 310 508 353 452 c 2
 360 443 l 1
 368 454 l 2
 384 474 406 495 427 508 c 0
 463 532 498 541 549 541 c 0
 575 542 585 541 608 536 c 0
 677 522 730 479 756 413 c 0
 766 390 770 370 776 331 c 0
 781 298 782 286 780 278 c 0
 777 257 762 241 742 237 c 0
 736 235 714 235 574 235 c 2
 413 235 l 1
 413 230 l 1
 414 227 415 218 417 210 c 0
 426 163 447 127 473 109 c 0
 488 99 506 92 529 87 c 0
 543 84 579 84 595 86 c 0
 619 91 630 95 643 107 c 0
 654 117 662 122 674 123 c 0
 710 128 740 92 727 57 c 0
 724 49 721 45 713 37 c 0
 684 7 644 -10 585 -15 c 0
 548 -18 503 -12 469 0 c 0
 426 16 394 40 369 73 c 0
 364 79 360 84 360 83 c 1
 360 83 356 79 353 74 c 0
 316 26 261 -5 197 -14 c 0
 180 -16 144 -16 127 -14 c 0
 28 0 -46 65 -74 164 c 0
 -91 225 -91 301 -74 363 c 0
 -45 460 27 525 124 539 c 0
 132 540 141 541 143 541 c 1
195 439 m 0
 183 441 152 443 141 441 c 0
 108 436 82 424 60 403 c 0
 36 378 22 347 15 303 c 0
 13 288 12 253 14 237 c 0
 18 189 34 150 60 124 c 0
 80 104 102 92 132 86 c 0
 144 84 180 84 192 86 c 0
 222 92 244 104 264 124 c 0
 290 150 306 189 310 237 c 0
 312 253 311 288 309 303 c 0
 302 347 288 378 264 403 c 0
 244 422 223 433 195 439 c 0
585 439 m 0
 574 441 539 443 526 441 c 0
 517 440 502 436 494 432 c 0
 463 417 434 383 421 345 c 2
 418 336 l 1
 546 335 l 1
 674 335 l 1
 674 336 674 339 673 343 c 0
 663 398 635 429 585 439 c 0
EndSplineSet
Ligature: 0 0 'liga' f f
EndChar
StartChar: fi
Encoding: 28 64257 28
Width: 723
Flags: W
Fore
595 598 m 1
 611 601 626 596 638 584 c 0
 650 572 655 556 652 539 c 0
 650 527 646 523 607 476 c 2
 568 431 l 1
 572 425 l 2
 577 415 586 395 590 385 c 0
 615 320 618 233 598 164 c 0
 576 88 526 29 457 2 c 0
 426 -10 398 -15 362 -15 c 0
 338 -15 327 -14 305 -10 c 0
 280 -5 250 7 230 20 c 2
 224 24 l 1
 190 -17 l 2
 171 -39 153 -59 151 -61 c 0
 128 -80 94 -74 78 -50 c 0
 67 -33 67 -10 78 5 c 0
 80 8 98 29 118 53 c 2
 154 96 l 1
 154 97 152 100 150 104 c 0
 136 128 124 160 119 191 c 0
 110 238 110 292 120 339 c 0
 134 410 171 467 225 503 c 0
 279 538 348 550 415 536 c 0
 443 531 472 519 493 506 c 2
 498 502 l 1
 534 545 l 2
 561 576 571 588 575 590 c 2
 580 594 590 598 595 598 c 1
394 439 m 0
 383 441 351 443 340 441 c 0
 307 436 281 424 259 403 c 0
 235 378 221 347 214 303 c 0
 212 288 212 253 213 237 c 0
 215 216 222 180 225 180 c 0
 226 180 433 425 433 425 c 1
 429 429 408 436 394 439 c 0
501 339 m 0
 500 343 499 346 498 346 c 1
 497 347 290 102 290 101 c 0
 290 100 305 93 316 90 c 0
 331 86 340 84 363 85 c 0
 391 85 409 89 431 99 c 0
 457 113 478 135 492 164 c 0
 506 194 512 228 511 272 c 0
 510 298 507 319 501 339 c 0
EndSplineSet
Ligature: 0 0 'liga' f i
EndChar
StartChar: fl
Encoding: 29 64258 29
Width: 723
Flags: W
Fore
145 703 m 1
 147 703 168 704 193 704 c 0
 236 704 237 703 242 701 c 2
 248 699 l 1
 477 699 l 2
 725 699 714 699 725 694 c 0
 752 680 761 646 744 621 c 0
 739 614 732 608 725 604 c 0
 714 599 724 599 499 599 c 0
 301 599 291 599 291 597 c 0
 291 596 302 555 315 505 c 2
 339 414 l 1
 523 414 l 2
 722 414 714 414 725 409 c 0
 752 395 761 361 744 336 c 0
 739 329 732 323 725 319 c 0
 714 314 720 314 536 314 c 0
 400 314 365 314 365 313 c 0
 365 312 377 264 392 207 c 2
 420 102 l 1
 566 101 l 2
 685 101 713 100 717 99 c 0
 739 92 752 73 752 51 c 0
 752 32 742 15 725 6 c 0
 714 1 718 1 561 1 c 2
 416 1 l 1
 411 -2 l 2
 386 -18 352 -8 340 18 c 0
 337 24 331 45 314 112 c 2
 292 198 l 1
 191 198 l 1
 90 198 l 1
 67 111 l 2
 52 54 44 22 42 18 c 0
 36 5 21 -6 7 -9 c 0
 -10 -12 -29 -6 -40 7 c 0
 -49 17 -54 33 -52 45 c 0
 -52 47 -16 189 29 360 c 0
 86 580 110 672 112 677 c 0
 118 689 132 700 145 703 c 1
228 442 m 2
 208 520 191 585 191 586 c 1
 153 443 l 2
 133 364 116 299 116 298 c 1
 191 298 l 1
 266 299 l 1
 228 442 l 2
EndSplineSet
Ligature: 0 0 'liga' f l
EndChar
StartChar: ffi
Encoding: 30 64259 30
Width: 723
Flags: W
Fore
146 718 m 0
 150 718 160 719 169 719 c 0
 219 717 264 698 302 661 c 0
 307 657 311 653 311 654 c 1
 312 654 312 657 312 659 c 0
 313 667 319 677 326 684 c 0
 333 691 343 696 352 698 c 0
 357 699 412 699 532 699 c 0
 721 699 714 699 725 694 c 0
 752 680 761 646 744 621 c 0
 739 614 732 608 725 604 c 0
 714 599 718 599 559 599 c 2
 411 599 l 1
 411 507 l 1
 411 414 l 1
 538 414 l 1
 665 414 l 1
 670 411 l 1
 691 403 704 385 704 364 c 0
 704 343 691 325 670 317 c 2
 665 315 l 1
 538 314 l 1
 411 314 l 1
 411 207 l 1
 411 101 l 1
 559 101 l 2
 718 101 714 101 725 96 c 0
 752 82 761 48 744 23 c 0
 739 16 732 10 725 6 c 0
 714 1 721 1 532 1 c 0
 412 1 357 1 352 2 c 0
 329 6 311 28 311 52 c 2
 311 56 l 1
 300 45 l 2
 263 10 224 -8 178 -12 c 0
 156 -14 128 -11 106 -3 c 0
 43 20 -10 78 -44 161 c 0
 -89 274 -93 404 -55 520 c 0
 -34 587 2 642 46 677 c 0
 75 700 108 713 146 718 c 0
180 618 m 0
 162 621 141 618 125 610 c 0
 100 597 75 569 57 533 c 0
 39 497 26 450 21 400 c 0
 19 384 19 328 21 313 c 0
 33 207 75 123 129 95 c 0
 151 84 179 84 201 95 c 0
 255 123 297 207 309 313 c 0
 311 328 311 384 309 400 c 0
 306 428 300 459 292 484 c 0
 279 529 259 563 234 588 c 0
 217 605 200 614 180 618 c 0
EndSplineSet
Ligature: 0 0 'liga' ff i
Ligature: 0 0 'liga' f f i
EndChar
StartChar: ffl
Encoding: 31 64260 31
Width: 723
Flags: W
Fore
579 775 m 0
 595 777 610 772 621 761 c 0
 636 746 640 722 631 704 c 0
 630 702 613 673 593 640 c 2
 557 581 l 1
 561 572 l 2
 567 560 577 536 582 519 c 0
 605 449 613 371 604 296 c 0
 597 229 576 162 546 110 c 0
 516 59 477 21 433 2 c 0
 407 -9 389 -12 362 -12 c 0
 341 -12 328 -11 311 -6 c 0
 286 2 257 18 236 36 c 0
 233 39 231 40 230 39 c 1
 230 38 218 19 204 -4 c 0
 190 -28 177 -49 175 -51 c 0
 173 -54 169 -58 165 -61 c 0
 145 -74 119 -72 102 -55 c 0
 92 -45 87 -34 87 -20 c 0
 87 -6 88 -5 129 64 c 2
 167 127 l 1
 162 138 l 2
 156 152 145 178 140 195 c 0
 123 249 114 310 115 368 c 0
 118 452 138 534 174 595 c 0
 214 665 269 707 336 717 c 0
 347 719 378 719 390 717 c 0
 425 711 456 697 484 674 c 0
 488 670 493 667 493 668 c 1
 520 712 l 2
 538 742 547 756 551 760 c 0
 558 768 569 774 579 775 c 0
387 615 m 0
 379 618 376 618 364 619 c 0
 355 619 349 619 345 618 c 0
 315 611 289 591 267 556 c 0
 241 517 224 463 217 400 c 0
 215 385 215 327 217 312 c 0
 220 286 230 236 232 236 c 0
 233 236 383 485 438 577 c 0
 439 579 438 580 433 585 c 0
 419 600 403 610 387 615 c 0
502 429 m 0
 500 439 497 453 496 460 c 2
 492 474 l 1
 488 466 l 1
 485 462 439 384 384 294 c 0
 291 139 285 129 286 127 c 0
 288 123 305 108 314 102 c 0
 344 82 378 82 408 101 c 0
 453 130 489 201 502 286 c 0
 507 313 507 322 507 356 c 0
 507 391 507 400 502 429 c 0
EndSplineSet
Ligature: 0 0 'liga' ff l
Ligature: 0 0 'liga' f f l
EndChar
StartChar: exclam
Encoding: 33 33 33
Width: 723
Flags: W
Fore
350 765 m 0
 376 772 403 755 409 728 c 0
 412 719 412 327 410 317 c 0
 407 304 399 293 389 286 c 0
 360 267 320 283 312 317 c 0
 310 327 310 719 313 728 c 0
 317 747 331 761 350 765 c 0
330 72 m 1
 332 72 346 73 361 73 c 0
 391 73 396 72 407 67 c 0
 414 64 425 53 428 46 c 0
 433 35 434 31 434 0 c 0
 434 -31 433 -35 428 -46 c 0
 425 -53 414 -64 407 -67 c 0
 396 -73 390 -73 358 -73 c 0
 331 -72 328 -72 323 -70 c 0
 307 -64 295 -52 291 -36 c 0
 288 -28 288 28 291 36 c 0
 296 55 311 68 330 72 c 1
EndSplineSet
EndChar
StartChar: quotedbl
Encoding: 34 34 34
Width: 723
Flags: W
Fore
256 765 m 0
 282 772 309 755 315 728 c 0
 318 719 318 643 316 633 c 0
 310 607 285 590 260 594 c 0
 240 597 223 613 218 633 c 0
 216 643 216 719 219 728 c 0
 223 747 237 761 256 765 c 0
444 765 m 0
 470 772 497 755 503 728 c 0
 506 719 506 643 504 633 c 0
 498 607 473 590 448 594 c 0
 428 597 411 613 406 633 c 0
 404 643 404 719 407 728 c 0
 411 747 425 761 444 765 c 0
EndSplineSet
EndChar
StartChar: numbersign
Encoding: 35 35 35
Width: 723
Flags: W
Fore
314 769 m 1
 322 770 326 770 334 769 c 1
 344 766 352 762 359 755 c 0
 366 748 370 741 372 732 c 0
 376 721 375 718 357 636 c 2
 339 560 l 1
 402 559 l 1
 465 559 l 1
 484 647 l 2
 506 745 506 744 517 755 c 0
 536 774 568 774 587 755 c 0
 597 745 603 729 602 716 c 1
 601 713 594 678 585 637 c 0
 576 597 568 563 568 561 c 1
 567 558 567 558 571 558 c 0
 582 556 595 547 602 536 c 0
 618 511 609 477 583 464 c 0
 574 460 567 459 554 459 c 2
 544 459 l 1
 527 381 l 1
 509 304 l 1
 530 303 l 2
 548 302 551 302 556 300 c 0
 568 296 576 290 582 280 c 0
 598 255 589 221 563 208 c 0
 552 204 547 203 515 203 c 0
 489 203 487 203 487 201 c 1
 486 200 477 159 466 111 c 0
 451 45 445 20 443 16 c 0
 438 4 427 -6 415 -10 c 0
 388 -19 360 -5 351 21 c 0
 347 35 347 35 366 122 c 0
 376 165 384 201 384 202 c 0
 384 203 372 203 322 203 c 0
 287 203 259 203 259 202 c 0
 259 200 218 22 217 18 c 0
 211 3 196 -9 179 -12 c 0
 154 -17 129 0 122 25 c 0
 120 36 120 39 139 121 c 0
 148 164 156 200 157 202 c 1
 157 203 157 204 152 204 c 1
 142 206 128 215 121 225 c 0
 101 254 117 294 152 302 c 1
 156 302 163 303 169 303 c 2
 180 303 l 1
 197 380 l 1
 214 458 l 2
 214 459 206 459 196 459 c 0
 185 459 176 460 172 460 c 1
 146 466 129 491 133 516 c 0
 136 537 152 553 172 558 c 0
 177 559 186 559 208 559 c 0
 235 559 237 559 237 561 c 1
 238 562 246 601 257 647 c 0
 267 694 277 734 278 737 c 0
 281 746 288 755 296 761 c 0
 302 765 307 767 314 769 c 1
442 457 m 1
 442 459 l 1
 380 459 l 2
 330 459 317 459 317 458 c 1
 316 456 282 304 282 304 c 2
 282 303 310 303 344 303 c 0
 403 303 407 303 407 305 c 1
 408 306 415 340 425 381 c 0
 434 421 441 456 442 457 c 1
EndSplineSet
EndChar
StartChar: dollar
Encoding: 36 36 36
Width: 723
Flags: W
Fore
350 765 m 0
 376 772 403 755 409 728 c 0
 410 724 411 720 411 717 c 2
 411 713 l 1
 416 713 l 1
 442 709 468 701 491 690 c 0
 526 673 559 644 579 614 c 0
 587 602 589 586 586 573 c 0
 577 543 544 528 517 541 c 0
 507 546 503 549 494 561 c 0
 481 578 466 591 448 600 c 0
 438 605 423 610 415 611 c 2
 411 612 l 1
 411 520 l 1
 411 428 l 1
 430 421 l 2
 542 383 597 334 609 258 c 0
 611 246 611 218 609 206 c 0
 605 186 597 163 587 146 c 0
 555 92 498 57 423 46 c 2
 412 44 l 1
 411 37 l 2
 408 14 394 -3 373 -8 c 0
 356 -13 339 -8 326 5 c 0
 317 14 311 27 311 39 c 0
 311 44 312 43 290 45 c 0
 227 51 187 68 154 101 c 0
 133 122 116 151 113 169 c 0
 109 193 126 218 150 224 c 0
 166 229 185 224 198 211 c 0
 201 208 205 202 209 193 c 0
 224 165 241 153 279 147 c 0
 285 146 294 145 299 145 c 2
 303 144 308 144 309 143 c 1
 311 143 l 1
 311 247 l 1
 311 352 l 1
 310 352 301 355 289 358 c 0
 246 372 212 387 187 403 c 0
 144 432 121 468 116 514 c 0
 115 527 115 536 117 552 c 0
 126 636 194 696 296 711 c 2
 311 713 l 1
 311 717 l 2
 311 720 312 724 313 728 c 0
 317 747 331 761 350 765 c 0
311 534 m 2
 311 578 311 613 310 613 c 1
 310 613 308 613 307 612 c 1
 291 610 272 604 259 597 c 0
 231 583 217 563 215 536 c 0
 214 510 223 496 254 479 c 0
 266 473 294 461 309 457 c 1
 311 456 l 1
 311 534 l 2
425 317 m 0
 420 319 414 321 413 321 c 1
 411 322 l 1
 411 234 l 2
 411 185 411 145 412 145 c 0
 414 145 435 150 443 153 c 0
 483 166 509 195 511 229 c 0
 512 255 501 274 475 292 c 0
 464 299 438 312 425 317 c 0
EndSplineSet
EndChar
StartChar: percent
Encoding: 37 37 37
Width: 723
Flags: W
Fore
225 769 m 0
 236 770 245 770 257 769 c 0
 305 763 344 733 361 688 c 0
 380 638 373 575 345 535 c 0
 311 488 248 470 194 492 c 0
 156 507 129 538 118 582 c 0
 114 597 113 608 113 629 c 0
 113 650 114 663 120 680 c 0
 125 695 129 703 136 714 c 0
 156 744 188 763 225 769 c 0
253 668 m 0
 247 670 237 670 231 668 c 0
 228 667 225 665 222 662 c 0
 215 655 213 648 212 631 c 0
 211 607 217 591 230 585 c 0
 235 582 249 582 255 585 c 0
 263 589 268 597 271 611 c 0
 273 622 272 641 269 650 c 0
 266 659 260 666 253 668 c 0
550 763 m 0
 561 765 572 764 583 758 c 0
 604 748 615 723 608 700 c 0
 606 692 627 729 398 342 c 0
 239 74 202 12 197 8 c 1
 188 -2 175 -7 162 -7 c 0
 127 -7 103 29 116 61 c 0
 118 67 517 739 522 746 c 0
 528 754 540 761 550 763 c 0
464 274 m 0
 475 275 484 275 496 274 c 0
 544 268 583 238 600 193 c 0
 619 143 612 80 584 40 c 0
 550 -7 487 -25 433 -3 c 0
 395 12 368 43 357 87 c 0
 353 102 352 113 352 134 c 0
 352 155 353 168 359 185 c 0
 364 200 368 208 375 219 c 0
 395 249 427 268 464 274 c 0
492 173 m 0
 486 175 476 175 470 173 c 0
 467 172 464 170 461 167 c 0
 454 160 452 153 451 136 c 0
 450 112 456 96 469 90 c 0
 472 88 474 88 481 88 c 0
 490 88 495 89 500 95 c 0
 504 99 508 107 510 116 c 0
 512 127 511 146 508 155 c 0
 505 164 499 171 492 173 c 0
EndSplineSet
EndChar
StartChar: ampersand
Encoding: 38 38 38
Width: 723
Flags: W
Fore
317 769 m 0
 325 770 364 769 376 767 c 0
 406 763 433 754 455 740 c 0
 500 709 527 655 521 606 c 0
 516 563 491 515 451 472 c 0
 433 454 410 434 369 403 c 0
 357 394 347 387 347 386 c 1
 391 325 l 1
 462 228 l 2
 477 207 489 191 489 192 c 1
 490 192 492 198 494 204 c 0
 504 231 509 258 510 294 c 0
 512 322 513 326 520 336 c 0
 535 356 561 362 583 351 c 0
 595 346 603 336 608 323 c 0
 610 316 610 314 610 298 c 0
 610 230 590 160 558 108 c 2
 553 100 l 1
 565 83 l 2
 572 74 579 64 580 60 c 0
 589 41 585 19 570 5 c 0
 554 -10 533 -14 513 -5 c 0
 505 -1 498 5 490 17 c 0
 486 23 483 28 482 28 c 1
 482 28 478 26 474 23 c 0
 454 12 442 6 421 -1 c 0
 390 -11 351 -15 312 -12 c 0
 252 -7 208 11 173 45 c 0
 126 93 104 165 115 242 c 0
 122 297 148 344 198 393 c 0
 205 399 210 404 210 405 c 1
 201 418 l 2
 178 453 163 482 153 512 c 0
 137 563 137 616 155 661 c 0
 178 720 234 761 304 768 c 0
 309 769 315 769 317 769 c 0
361 669 m 0
 350 670 324 670 314 669 c 0
 284 665 261 652 251 631 c 0
 249 627 246 620 244 614 c 0
 242 605 242 603 242 587 c 0
 242 571 242 567 244 558 c 0
 249 534 260 510 280 479 c 0
 285 473 288 467 288 467 c 1
 289 467 298 474 309 482 c 0
 374 532 400 559 415 594 c 0
 423 613 424 622 418 636 c 0
 409 655 390 666 361 669 c 0
314 262 m 2
 291 294 271 321 271 322 c 1
 270 323 267 321 260 313 c 0
 223 274 211 246 212 200 c 0
 213 175 217 158 227 139 c 0
 242 111 264 96 301 89 c 0
 315 87 360 87 372 89 c 0
 389 93 408 100 420 107 c 2
 424 110 l 1
 420 116 l 1
 314 262 l 2
EndSplineSet
EndChar
StartChar: quoteright
Encoding: 39 8217 39
Width: 723
Flags: W
Fore
315 766 m 0
 317 766 339 767 364 767 c 0
 407 766 409 766 414 764 c 0
 435 757 448 738 448 718 c 0
 448 714 444 648 438 570 c 0
 431 473 428 427 427 423 c 0
 422 406 410 394 394 388 c 0
 389 386 386 386 366 385 c 0
 339 385 333 386 322 391 c 0
 310 396 300 408 297 421 c 1
 295 425 292 466 285 568 c 0
 279 645 275 712 275 717 c 0
 275 728 278 737 284 746 c 0
 291 756 303 764 315 766 c 0
EndSplineSet
EndChar
StartChar: parenleft
Encoding: 40 40 40
Width: 723
Flags: W
Fore
482 768 m 0
 490 770 494 770 502 769 c 0
 530 763 547 735 540 708 c 0
 537 694 532 687 511 672 c 0
 467 639 429 599 404 561 c 0
 389 539 381 522 372 497 c 0
 361 464 355 428 354 385 c 0
 353 309 365 256 398 202 c 0
 425 160 467 115 509 86 c 2
 528 72 l 1
 557 42 538 -8 497 -13 c 0
 484 -14 473 -10 460 -1 c 0
 434 16 409 37 385 61 c 0
 316 130 274 207 261 290 c 0
 256 319 255 336 255 373 c 0
 255 411 256 433 262 466 c 0
 269 509 284 553 303 587 c 0
 335 647 391 708 456 755 c 0
 468 764 473 767 482 768 c 0
EndSplineSet
EndChar
StartChar: parenright
Encoding: 41 41 41
Width: 723
Flags: W
Fore
220 769 m 0
 234 772 248 768 262 758 c 0
 322 717 379 656 412 600 c 0
 450 535 470 451 468 361 c 0
 465 263 441 190 384 116 c 0
 369 94 355 79 335 59 c 0
 305 29 262 -5 247 -10 c 0
 215 -21 181 3 181 37 c 0
 181 55 189 69 205 80 c 0
 253 112 298 160 326 207 c 0
 348 244 360 277 366 324 c 0
 368 340 368 399 366 418 c 0
 360 475 345 522 319 561 c 0
 294 599 252 643 209 674 c 0
 193 686 187 692 183 705 c 0
 181 713 180 725 183 733 c 0
 188 751 202 764 220 769 c 0
EndSplineSet
EndChar
StartChar: asterisk
Encoding: 42 42 42
Width: 723
Flags: W
Fore
349 646 m 1
 351 646 357 647 363 647 c 0
 374 646 374 646 382 642 c 0
 395 636 403 627 408 613 c 0
 410 608 411 607 411 527 c 2
 412 447 l 1
 480 470 l 2
 517 482 551 493 555 493 c 0
 568 495 583 490 594 480 c 0
 605 470 610 458 610 444 c 0
 610 425 600 408 583 399 c 1
 520 378 l 2
 487 367 460 359 460 358 c 1
 499 291 l 2
 520 254 538 221 539 218 c 0
 542 211 543 199 541 192 c 0
 539 182 534 174 527 167 c 0
 512 152 490 148 470 158 c 0
 456 164 456 165 412 241 c 0
 390 279 372 310 372 309 c 1
 321 241 l 2
 293 203 269 170 266 168 c 2
 256 157 246 153 231 153 c 0
 221 153 214 154 206 159 c 0
 200 162 192 169 188 176 c 0
 178 191 178 213 188 228 c 0
 190 231 212 260 236 293 c 2
 280 353 l 1
 210 376 l 2
 147 397 140 399 134 403 c 0
 111 419 106 451 123 474 c 0
 133 488 152 496 169 493 c 0
 172 493 205 482 242 470 c 0
 279 458 309 448 310 448 c 0
 311 448 311 470 311 524 c 0
 311 574 311 603 312 607 c 0
 314 615 319 626 325 632 c 0
 331 638 342 644 349 646 c 1
EndSplineSet
EndChar
StartChar: plus
Encoding: 43 43 43
Width: 723
Flags: W
Fore
353 655 m 2
 354 656 359 656 364 655 c 1
 381 655 397 645 405 629 c 0
 411 617 411 619 411 519 c 2
 411 428 l 1
 487 428 l 2
 537 428 566 428 570 427 c 0
 583 425 595 416 602 405 c 0
 621 375 604 335 570 329 c 0
 566 328 537 328 487 328 c 2
 411 328 l 1
 411 234 l 1
 411 141 l 1
 408 135 l 2
 397 106 367 93 339 106 c 0
 328 111 319 121 314 135 c 2
 312 141 l 1
 311 234 l 1
 311 328 l 1
 235 328 l 2
 152 328 151 328 140 333 c 0
 133 337 126 343 121 350 c 0
 104 375 113 409 140 423 c 0
 151 428 152 428 235 428 c 2
 311 428 l 1
 311 519 l 2
 311 619 311 617 317 629 c 0
 324 642 338 653 353 655 c 2
EndSplineSet
EndChar
StartChar: comma
Encoding: 44 44 44
Width: 723
Flags: W
Fore
363 204 m 2
 370 206 l 1
 433 206 l 2
 502 206 501 206 512 200 c 0
 519 197 529 187 533 180 c 0
 538 170 539 166 539 140 c 0
 539 114 538 109 531 98 c 0
 526 91 271 -170 264 -175 c 0
 261 -177 255 -180 252 -181 c 0
 245 -183 243 -183 221 -183 c 0
 198 -183 197 -183 191 -181 c 0
 174 -174 163 -161 159 -144 c 0
 157 -136 158 -124 161 -116 c 0
 164 -108 337 184 341 189 c 0
 346 195 355 201 363 204 c 2
EndSplineSet
EndChar
StartChar: hyphen
Encoding: 45 45 45
Width: 723
Flags: W
Fore
151 441 m 1
 156 443 194 443 361 443 c 0
 501 443 565 443 570 442 c 0
 589 438 606 421 610 402 c 0
 612 393 611 362 610 354 c 0
 605 334 589 319 570 315 c 0
 565 314 501 314 361 314 c 0
 138 314 151 314 139 320 c 0
 126 327 116 340 113 354 c 0
 112 362 111 393 113 402 c 0
 117 421 132 437 151 441 c 1
EndSplineSet
EndChar
StartChar: period
Encoding: 46 46 46
Width: 723
Flags: W
Fore
279 185 m 0
 287 187 432 188 442 186 c 0
 461 182 478 165 482 146 c 0
 483 142 483 120 483 88 c 0
 483 31 483 29 477 17 c 0
 474 10 463 -1 456 -4 c 0
 444 -10 445 -10 362 -10 c 0
 278 -10 279 -10 267 -4 c 0
 260 -1 249 10 246 17 c 0
 240 29 240 31 240 88 c 0
 240 120 240 142 241 146 c 0
 245 165 261 181 279 185 c 0
EndSplineSet
EndChar
StartChar: slash
Encoding: 47 47 47
Width: 723
Flags: W
Fore
492 769 m 0
 510 772 529 765 540 750 c 0
 551 736 553 718 547 701 c 0
 540 683 267 17 265 13 c 0
 259 1 246 -8 233 -11 c 0
 222 -14 210 -13 200 -7 c 0
 181 2 169 25 173 45 c 0
 174 53 455 741 460 748 c 0
 467 758 480 767 492 769 c 0
EndSplineSet
EndChar
StartChar: zero
Encoding: 48 48 48
Width: 723
Flags: W
Fore
315 769 m 0
 329 770 392 770 406 769 c 0
 461 764 510 739 542 699 c 0
 580 651 600 590 607 490 c 0
 611 440 612 313 609 272 c 0
 602 196 590 144 567 100 c 0
 533 33 477 -5 406 -12 c 0
 391 -13 332 -13 317 -12 c 0
 292 -10 269 -4 248 6 c 0
 177 40 133 117 119 233 c 0
 114 271 113 287 112 347 c 0
 111 464 116 533 130 589 c 0
 150 670 187 722 245 750 c 0
 266 759 292 767 315 769 c 0
416 667 m 1
 406 669 405 669 365 670 c 0
 322 670 318 670 304 666 c 0
 261 653 236 616 223 545 c 0
 217 515 215 487 213 437 c 0
 211 392 212 297 214 272 c 0
 222 188 243 130 276 105 c 0
 285 99 297 93 308 90 c 2
 318 88 l 1
 362 88 l 1
 406 88 l 1
 415 90 l 2
 426 93 438 99 447 105 c 0
 480 130 501 188 509 272 c 0
 512 313 511 441 507 490 c 0
 501 574 482 626 450 651 c 0
 441 657 427 663 416 667 c 1
EndSplineSet
EndChar
StartChar: one
Encoding: 49 49 49
Width: 723
Flags: W
Fore
364 766 m 0
 371 767 408 767 415 765 c 0
 424 763 432 759 439 752 c 0
 446 746 451 735 453 726 c 0
 454 723 454 606 454 378 c 0
 454 3 454 30 448 17 c 0
 447 14 443 9 439 5 c 0
 413 -21 370 -11 357 24 c 2
 355 31 l 1
 354 333 l 1
 354 635 l 1
 290 580 l 2
 255 550 224 524 221 522 c 0
 202 509 176 512 159 527 c 0
 157 529 154 533 152 536 c 0
 141 553 141 575 153 592 c 0
 156 596 179 617 247 675 c 0
 297 718 340 755 343 757 c 0
 349 761 356 765 364 766 c 0
EndSplineSet
EndChar
StartChar: two
Encoding: 50 50 50
Width: 723
Flags: W
Fore
322 769 m 0
 353 771 386 770 409 765 c 0
 455 756 499 732 529 700 c 0
 562 666 580 625 584 576 c 0
 590 511 562 445 506 390 c 0
 483 367 456 347 403 313 c 0
 343 275 319 258 294 232 c 0
 258 196 243 164 240 114 c 2
 240 101 l 1
 392 101 l 2
 496 101 546 101 550 100 c 0
 573 96 590 75 590 51 c 0
 590 27 573 6 550 2 c 0
 545 1 488 1 365 1 c 0
 214 1 185 1 180 2 c 0
 163 6 148 19 143 36 c 0
 141 42 141 45 140 73 c 0
 140 119 142 148 149 175 c 0
 163 235 199 287 260 336 c 0
 282 353 303 367 351 398 c 0
 399 429 418 443 439 463 c 0
 462 486 475 508 482 533 c 0
 484 541 484 544 484 559 c 0
 484 578 483 588 477 601 c 0
 466 629 439 652 407 662 c 0
 390 668 383 669 362 670 c 0
 312 671 277 664 240 646 c 0
 231 642 219 635 213 631 c 0
 199 622 193 620 182 619 c 0
 153 617 130 640 130 669 c 0
 130 682 134 693 143 703 c 0
 154 714 191 735 220 746 c 0
 251 759 286 766 322 769 c 0
EndSplineSet
EndChar
StartChar: three
Encoding: 51 51 51
Width: 723
Flags: W
Fore
154 754 m 1
 159 756 193 756 349 756 c 2
 537 756 l 1
 542 753 l 1
 559 747 570 735 574 719 c 0
 576 714 576 709 576 687 c 0
 575 659 575 655 568 644 c 1
 566 642 528 601 483 554 c 0
 417 485 403 469 405 469 c 1
 406 468 412 467 418 465 c 0
 433 461 456 452 472 444 c 0
 525 418 565 377 585 326 c 0
 617 244 602 148 546 81 c 0
 513 42 465 13 410 -1 c 0
 347 -17 278 -17 208 1 c 0
 179 8 143 21 133 28 c 0
 119 38 110 58 113 75 c 0
 116 96 132 113 153 117 c 0
 164 119 172 118 188 112 c 0
 238 92 292 84 343 88 c 0
 421 95 476 131 495 190 c 0
 502 211 504 240 500 261 c 0
 493 301 474 328 438 350 c 0
 410 366 366 378 324 381 c 0
 283 384 281 384 269 393 c 0
 262 398 256 406 252 416 c 0
 250 420 250 423 250 433 c 0
 250 445 251 451 258 460 c 0
 260 463 302 508 352 561 c 2
 442 656 l 1
 299 656 l 2
 139 657 152 656 140 663 c 0
 127 671 118 684 116 698 c 0
 112 723 129 749 154 754 c 1
EndSplineSet
EndChar
StartChar: four
Encoding: 52 52 52
Width: 723
Flags: W
Fore
369 766 m 0
 385 769 400 765 412 753 c 0
 426 741 431 721 426 704 c 1
 426 701 379 601 323 481 c 2
 221 264 l 1
 221 263 263 263 314 263 c 2
 408 263 l 1
 408 326 l 2
 409 388 409 389 411 394 c 0
 419 415 437 428 458 428 c 0
 479 428 497 415 505 394 c 0
 507 389 507 388 508 326 c 2
 508 263 l 1
 536 263 l 2
 567 263 572 262 583 258 c 0
 619 240 619 186 583 168 c 0
 572 164 567 163 536 163 c 2
 508 163 l 1
 508 99 l 2
 508 30 508 29 502 17 c 0
 499 10 488 -1 481 -4 c 0
 460 -14 439 -11 423 5 c 0
 419 9 415 14 414 17 c 0
 408 29 408 30 408 99 c 2
 408 163 l 1
 283 163 l 2
 146 163 151 163 139 169 c 0
 126 176 116 190 113 205 c 0
 112 210 112 221 112 239 c 0
 113 263 113 266 115 271 c 0
 118 280 333 738 337 744 c 0
 344 755 356 764 369 766 c 0
EndSplineSet
EndChar
StartChar: five
Encoding: 53 53 53
Width: 723
Flags: W
Fore
211 754 m 0
 220 757 517 757 526 754 c 0
 546 750 561 734 564 713 c 0
 568 693 556 670 538 662 c 0
 526 656 531 656 394 656 c 0
 295 656 269 656 269 655 c 0
 269 654 267 622 265 585 c 0
 263 547 261 515 261 513 c 0
 261 511 261 511 285 511 c 0
 385 508 463 481 509 432 c 0
 549 390 570 331 570 260 c 0
 570 238 569 226 566 211 c 0
 555 164 533 124 497 88 c 0
 447 37 377 5 289 -6 c 0
 247 -12 191 -15 178 -12 c 0
 167 -9 160 -5 153 2 c 0
 133 22 133 52 153 72 c 0
 166 84 173 87 209 87 c 0
 248 88 271 91 301 96 c 0
 385 113 444 157 465 218 c 0
 470 235 471 245 471 266 c 0
 469 308 459 340 438 362 c 0
 414 388 366 406 304 410 c 0
 286 411 242 411 219 409 c 0
 203 408 195 409 185 414 c 0
 177 418 167 428 163 436 c 0
 157 449 157 441 165 583 c 0
 169 653 173 713 173 716 c 1
 174 718 176 724 178 728 c 0
 184 741 196 751 211 754 c 0
EndSplineSet
EndChar
StartChar: six
Encoding: 54 54 54
Width: 723
Flags: W
Fore
424 766 m 0
 436 768 452 766 462 759 c 0
 468 755 476 746 479 740 c 0
 487 724 487 704 477 690 c 0
 476 688 464 675 452 663 c 0
 405 613 369 571 337 530 c 0
 321 509 300 480 300 479 c 1
 312 481 l 2
 364 489 422 484 467 466 c 0
 521 445 561 408 585 359 c 0
 598 331 605 305 609 268 c 0
 611 253 611 210 609 197 c 0
 601 131 570 74 520 37 c 0
 479 6 430 -11 371 -13 c 0
 338 -14 300 -9 271 1 c 0
 212 21 166 60 139 114 c 0
 119 153 111 192 112 247 c 0
 114 335 130 391 174 466 c 0
 220 548 287 633 380 731 c 0
 406 759 411 762 424 766 c 0
384 384 m 0
 372 385 348 385 337 384 c 0
 312 381 288 373 270 361 c 0
 261 355 246 340 240 330 c 0
 220 301 211 262 212 221 c 0
 213 196 218 179 228 159 c 0
 251 112 298 87 362 87 c 0
 425 87 472 112 495 159 c 0
 506 179 510 196 511 223 c 0
 511 244 510 263 507 281 c 0
 504 296 501 305 495 316 c 0
 489 329 484 336 474 346 c 0
 451 368 422 380 384 384 c 0
EndSplineSet
EndChar
StartChar: seven
Encoding: 55 55 55
Width: 723
Flags: W
Fore
151 755 m 0
 159 756 560 757 570 755 c 0
 590 751 606 734 610 714 c 0
 613 696 607 657 597 629 c 0
 582 585 553 540 502 477 c 0
 439 399 425 380 407 350 c 0
 373 292 351 222 342 140 c 0
 339 114 338 95 337 63 c 0
 337 25 335 18 322 5 c 0
 302 -15 272 -15 252 5 c 0
 237 20 235 30 238 87 c 0
 242 179 257 255 284 324 c 0
 308 384 335 428 391 498 c 2
 424 539 l 2
 461 584 484 618 496 645 c 2
 501 656 l 1
 327 656 l 2
 140 657 150 656 140 662 c 0
 113 675 104 709 121 734 c 0
 128 744 139 752 151 755 c 0
EndSplineSet
EndChar
StartChar: eight
Encoding: 56 56 56
Width: 723
Flags: W
Fore
336 769 m 0
 358 771 383 770 408 766 c 0
 512 749 583 672 575 583 c 0
 572 550 562 520 544 493 c 0
 528 468 508 448 480 430 c 0
 473 425 468 422 468 422 c 1
 468 421 473 417 480 413 c 0
 547 364 586 313 603 252 c 0
 609 234 610 221 610 200 c 0
 610 179 609 168 605 151 c 0
 589 91 547 41 489 12 c 0
 451 -6 411 -13 356 -13 c 0
 291 -13 236 6 188 44 c 0
 162 65 138 97 126 128 c 0
 111 166 108 206 118 245 c 0
 133 308 175 365 245 414 c 2
 255 421 l 1
 244 429 l 2
 214 448 195 468 178 493 c 0
 146 541 137 603 156 650 c 0
 172 691 204 724 248 745 c 0
 275 758 302 766 336 769 c 0
393 668 m 0
 383 669 349 670 338 669 c 0
 297 664 265 645 251 618 c 2
 247 609 l 1
 247 596 l 2
 247 576 251 562 262 546 c 0
 272 531 292 515 317 501 c 0
 331 493 359 480 361 480 c 0
 364 480 413 505 425 513 c 0
 459 536 477 566 476 599 c 0
 475 609 475 610 471 619 c 0
 467 626 464 630 458 636 c 0
 454 640 448 646 444 648 c 0
 430 657 413 664 393 668 c 0
373 362 m 0
 367 365 362 368 361 368 c 0
 359 368 339 357 325 348 c 0
 299 332 280 317 261 298 c 0
 236 273 222 251 215 225 c 0
 213 217 213 214 213 200 c 0
 213 186 213 182 215 176 c 0
 225 139 257 109 299 95 c 0
 319 88 331 87 357 87 c 0
 409 87 433 93 462 112 c 0
 472 118 487 133 493 142 c 0
 499 151 506 165 508 175 c 0
 511 185 512 203 510 214 c 0
 505 242 490 269 462 297 c 0
 438 321 409 342 373 362 c 0
EndSplineSet
EndChar
StartChar: nine
Encoding: 57 57 57
Width: 723
Flags: W
Fore
345 769 m 0
 353 770 375 770 388 768 c 0
 415 766 440 760 462 750 c 0
 542 718 593 653 607 567 c 0
 611 544 612 509 610 484 c 0
 604 401 566 310 496 205 c 0
 455 145 414 94 363 42 c 0
 322 1 311 -7 295 -9 c 0
 276 -12 255 -3 245 14 c 0
 235 30 236 51 245 66 c 0
 247 69 257 80 269 91 c 0
 314 133 349 172 385 221 c 0
 400 241 423 275 423 276 c 1
 422 276 419 276 415 275 c 0
 389 272 347 271 321 274 c 0
 291 278 263 286 241 297 c 0
 168 332 121 404 113 491 c 0
 108 548 124 610 156 659 c 0
 197 719 262 760 332 768 c 0
 337 769 343 769 345 769 c 0
394 667 m 0
 386 669 379 669 366 670 c 0
 346 670 341 669 326 666 c 0
 270 651 227 604 215 544 c 0
 212 527 212 498 215 482 c 0
 225 431 256 394 300 380 c 0
 320 374 330 373 364 373 c 0
 394 373 404 373 422 377 c 0
 467 387 493 409 503 447 c 0
 514 488 514 545 502 580 c 0
 486 625 447 657 394 667 c 0
EndSplineSet
EndChar
StartChar: colon
Encoding: 58 58 58
Width: 723
Flags: W
Fore
298 530 m 1
 300 530 328 531 364 531 c 0
 425 530 426 530 431 528 c 0
 447 522 459 510 463 494 c 0
 466 486 466 396 463 388 c 0
 459 372 447 360 431 354 c 0
 426 352 425 352 366 351 c 0
 325 351 303 351 299 352 c 0
 279 355 263 371 258 391 c 0
 256 401 256 481 258 491 c 0
 262 510 279 526 298 530 c 1
298 169 m 0
 300 169 328 170 364 170 c 0
 425 169 426 169 431 167 c 0
 447 161 459 149 463 133 c 0
 466 125 466 35 463 27 c 0
 458 9 445 -4 427 -8 c 1
 422 -10 411 -10 361 -10 c 0
 296 -10 296 -10 284 -4 c 0
 277 -1 266 10 263 17 c 0
 257 28 257 32 257 79 c 0
 257 106 257 125 258 129 c 0
 262 148 278 165 298 169 c 0
EndSplineSet
EndChar
StartChar: semicolon
Encoding: 59 59 59
Width: 723
Flags: W
Fore
316 530 m 0
 321 531 335 531 384 531 c 0
 445 530 446 530 451 528 c 0
 468 522 479 509 484 493 c 0
 486 485 486 397 484 389 c 0
 479 373 468 360 451 354 c 0
 446 352 445 352 386 351 c 0
 344 351 323 351 319 352 c 0
 299 355 283 371 278 391 c 0
 276 401 276 481 278 491 c 0
 282 510 298 525 316 530 c 0
316 171 m 1
 318 171 348 172 382 172 c 0
 451 172 450 172 462 166 c 0
 487 153 496 119 480 95 c 0
 472 84 285 -161 281 -165 c 0
 275 -170 265 -176 256 -177 c 0
 252 -178 240 -178 222 -178 c 0
 196 -177 194 -177 189 -175 c 0
 172 -168 161 -156 156 -139 c 0
 154 -131 155 -120 158 -112 c 2
 159 -107 263 105 281 141 c 0
 289 157 301 167 316 171 c 1
EndSplineSet
EndChar
StartChar: less
Encoding: 60 60 60
Width: 723
Flags: W
Fore
551 692 m 0
 562 694 572 693 583 688 c 0
 613 673 620 631 595 607 c 1
 422 491 l 1
 252 379 l 1
 422 266 l 2
 548 182 593 151 597 148 c 1
 612 132 614 107 603 88 c 0
 591 68 562 58 541 68 c 0
 533 72 134 337 128 342 c 0
 116 353 111 370 113 385 c 0
 114 395 120 407 127 413 c 1
 132 419 533 685 541 689 c 0
 544 690 548 691 551 692 c 0
EndSplineSet
EndChar
StartChar: equal
Encoding: 61 61 61
Width: 723
Flags: W
Fore
151 541 m 0
 159 542 560 543 570 541 c 0
 583 539 595 530 602 519 c 0
 621 489 604 449 570 443 c 0
 565 442 501 442 361 442 c 0
 142 442 151 442 140 447 c 0
 113 461 104 495 121 520 c 0
 128 530 139 538 151 541 c 0
151 314 m 0
 159 315 560 316 570 314 c 0
 583 312 595 303 602 292 c 0
 621 262 604 222 570 216 c 0
 565 215 501 215 361 215 c 0
 142 215 151 215 140 220 c 0
 113 234 104 268 121 293 c 0
 128 303 139 311 151 314 c 0
EndSplineSet
EndChar
StartChar: greater
Encoding: 62 62 62
Width: 723
Flags: W
Fore
151 692 m 0
 159 694 171 693 179 690 c 0
 184 688 237 653 387 554 c 0
 498 480 591 418 593 416 c 0
 607 404 614 382 608 364 c 0
 606 357 600 347 595 342 c 0
 590 338 189 71 183 68 c 0
 150 54 113 78 113 114 c 0
 113 128 118 140 127 149 c 0
 130 152 206 203 300 265 c 0
 392 326 468 377 469 377 c 1
 470 378 437 401 301 491 c 0
 193 563 130 605 127 608 c 0
 117 618 113 629 113 643 c 0
 113 666 128 686 151 692 c 0
EndSplineSet
EndChar
StartChar: question
Encoding: 63 63 63
Width: 723
Flags: W
Fore
325 712 m 0
 341 713 369 713 387 710 c 0
 426 704 461 689 489 668 c 0
 525 639 549 594 553 548 c 0
 557 511 545 471 513 415 c 0
 495 381 481 365 447 336 c 0
 417 310 413 305 411 289 c 0
 410 279 409 274 405 268 c 1
 397 251 380 241 361 241 c 0
 336 241 316 258 312 283 c 0
 309 301 316 331 328 352 c 0
 339 372 352 386 381 411 c 0
 392 420 403 431 406 434 c 0
 414 442 423 457 432 474 c 0
 453 514 457 530 452 549 c 0
 442 587 407 611 356 613 c 0
 308 615 266 596 250 564 c 0
 243 552 241 543 241 526 c 0
 240 510 238 502 232 493 c 0
 215 467 178 464 156 485 c 0
 143 498 139 513 141 540 c 0
 143 563 148 583 158 605 c 0
 187 665 246 702 325 712 c 0
325 76 m 0
 333 79 389 79 397 76 c 0
 415 71 428 58 432 40 c 0
 435 31 435 -20 432 -29 c 0
 428 -46 417 -58 400 -64 c 0
 394 -66 393 -66 361 -66 c 0
 330 -66 328 -66 323 -64 c 0
 307 -58 295 -46 291 -30 c 1
 289 -26 289 -19 289 6 c 0
 289 30 289 37 291 41 c 2
 293 50 297 56 303 63 c 0
 309 69 316 73 325 76 c 0
EndSplineSet
EndChar
StartChar: at
Encoding: 64 64 64
Width: 723
Flags: W
Fore
325 715 m 0
 349 717 381 716 405 712 c 0
 500 695 563 636 591 537 c 0
 600 504 604 473 609 415 c 0
 611 394 612 177 610 156 c 0
 608 134 606 120 602 104 c 0
 590 54 561 16 522 -3 c 0
 500 -14 482 -18 459 -18 c 0
 437 -18 422 -15 404 -6 c 0
 395 -2 383 8 376 15 c 2
 371 20 l 1
 363 14 l 2
 308 -28 227 -30 175 9 c 0
 140 36 121 78 114 146 c 0
 112 165 112 217 114 242 c 0
 118 286 122 310 129 330 c 0
 144 377 179 408 229 418 c 0
 240 420 266 420 279 418 c 0
 296 414 314 408 332 399 c 2
 342 394 l 1
 346 399 l 2
 352 406 359 411 368 414 c 0
 376 417 392 417 401 414 c 0
 413 409 423 401 428 390 c 0
 434 379 433 387 434 248 c 0
 435 121 435 118 437 109 c 0
 439 96 444 86 449 83 c 0
 455 79 471 81 481 88 c 0
 495 97 503 114 509 142 c 0
 510 151 511 160 511 273 c 0
 511 397 510 409 506 444 c 0
 500 507 484 551 460 577 c 0
 443 596 418 608 387 614 c 0
 378 615 372 615 351 615 c 0
 327 615 323 615 310 613 c 0
 253 602 224 580 215 539 c 0
 211 520 208 513 199 504 c 0
 180 487 151 487 132 504 c 0
 118 516 113 532 116 552 c 0
 123 590 140 624 168 651 c 0
 190 674 213 688 247 699 c 0
 268 707 298 713 325 715 c 0
268 318 m 0
 255 321 242 320 234 315 c 0
 230 312 226 307 224 301 c 0
 217 283 211 220 212 176 c 0
 213 134 220 105 231 92 c 0
 238 85 250 81 266 81 c 0
 276 81 284 83 294 88 c 0
 307 94 322 111 331 129 c 2
 334 135 l 1
 334 199 l 1
 334 264 l 1
 328 273 l 2
 314 294 291 312 268 318 c 0
EndSplineSet
EndChar
StartChar: A
Encoding: 65 65 65
Width: 723
Flags: W
Fore
314 702 m 1
 318 704 328 704 361 704 c 0
 386 704 404 704 407 703 c 0
 420 700 434 689 440 677 c 0
 442 672 466 580 523 360 c 0
 568 189 604 47 604 45 c 0
 605 37 603 27 599 18 c 0
 589 -2 567 -13 545 -9 c 0
 531 -6 516 5 510 18 c 0
 508 22 500 54 485 111 c 2
 463 198 l 1
 361 198 l 1
 260 198 l 1
 238 112 l 2
 221 45 215 24 212 18 c 0
 203 -2 180 -13 158 -9 c 0
 134 -4 116 20 118 43 c 1
 200 360 l 2
 260 595 281 673 283 677 c 0
 289 689 302 699 314 702 c 1
400 439 m 0
 380 516 363 581 363 583 c 1
 361 587 l 1
 359 577 l 2
 357 571 340 506 321 433 c 2
 286 299 l 1
 361 298 l 1
 436 298 l 1
 436 299 420 362 400 439 c 0
EndSplineSet
EndChar
StartChar: B
Encoding: 66 66 66
Width: 723
Flags: W
Fore
151 698 m 0
 161 700 389 699 408 697 c 0
 468 689 507 672 541 639 c 0
 609 570 616 461 557 387 c 0
 555 384 549 378 545 373 c 2
 537 365 l 1
 540 363 l 2
 550 355 567 336 576 323 c 0
 626 248 622 149 564 80 c 0
 532 41 485 17 426 7 c 0
 394 2 390 2 272 1 c 0
 190 1 159 1 154 2 c 0
 134 5 118 21 113 41 c 0
 111 51 111 649 113 659 c 0
 117 678 133 693 151 698 c 0
389 598 m 0
 381 599 338 599 293 599 c 2
 212 599 l 1
 212 507 l 1
 212 414 l 1
 297 414 l 2
 344 414 388 414 395 415 c 0
 452 419 482 438 494 478 c 0
 496 486 496 488 496 502 c 0
 496 521 495 529 487 545 c 0
 473 573 449 589 412 596 c 0
 408 596 397 597 389 598 c 0
395 313 m 0
 387 314 344 314 297 314 c 2
 212 314 l 1
 212 207 l 1
 212 101 l 1
 297 101 l 2
 384 102 391 102 414 106 c 0
 467 115 500 144 509 189 c 0
 516 222 506 256 483 280 c 0
 462 300 437 310 395 313 c 0
EndSplineSet
EndChar
StartChar: C
Encoding: 67 67 67
Width: 723
Flags: W
Fore
372 712 m 0
 430 718 489 698 524 660 c 0
 553 629 571 584 563 560 c 0
 550 524 506 513 480 540 c 0
 473 547 469 554 467 564 c 0
 462 582 451 596 435 604 c 0
 423 610 413 612 397 613 c 0
 375 614 356 609 340 600 c 0
 294 571 267 501 261 393 c 0
 260 370 260 320 262 298 c 0
 269 212 288 149 317 118 c 0
 329 105 345 95 364 90 c 0
 373 88 375 88 394 88 c 0
 411 88 414 88 422 90 c 0
 434 93 443 98 451 106 c 0
 459 114 463 121 466 134 c 0
 469 146 473 153 480 160 c 0
 506 187 550 176 563 140 c 0
 565 132 565 118 562 106 c 0
 555 82 546 63 530 45 c 0
 506 16 473 -2 431 -10 c 0
 418 -12 414 -12 395 -12 c 0
 371 -12 358 -11 339 -6 c 0
 303 3 271 22 246 47 c 0
 200 96 174 171 164 280 c 0
 152 404 170 528 210 599 c 0
 248 667 302 705 372 712 c 0
EndSplineSet
EndChar
StartChar: D
Encoding: 68 68 68
Width: 723
Flags: W
Fore
204 698 m 0
 215 700 251 699 280 695 c 0
 352 687 416 654 474 597 c 0
 504 566 526 536 545 499 c 0
 581 429 593 350 580 272 c 0
 572 221 550 171 519 129 c 0
 463 53 390 13 293 3 c 0
 272 1 215 0 206 2 c 0
 185 5 169 21 164 41 c 0
 162 51 162 649 164 659 c 0
 168 678 185 694 204 698 c 0
285 594 m 0
 279 595 272 596 269 596 c 2
 263 597 l 1
 263 349 l 1
 263 102 l 1
 276 102 l 2
 308 104 341 112 367 125 c 0
 419 152 462 208 478 269 c 0
 483 291 484 302 484 332 c 0
 484 360 484 369 478 393 c 0
 471 428 451 470 427 500 c 0
 388 549 334 584 285 594 c 0
EndSplineSet
EndChar
StartChar: E
Encoding: 69 69 69
Width: 723
Flags: W
Fore
199 698 m 1
 201 698 281 699 378 699 c 0
 570 699 559 699 572 693 c 0
 587 686 599 667 599 649 c 0
 599 626 583 606 560 601 c 0
 554 599 533 599 406 599 c 2
 258 599 l 1
 258 507 l 1
 258 414 l 1
 381 414 l 2
 514 414 512 414 523 409 c 0
 530 405 537 399 542 392 c 0
 559 367 550 333 523 319 c 0
 512 314 514 314 381 314 c 2
 258 314 l 1
 258 208 l 1
 258 101 l 1
 406 101 l 2
 567 101 559 101 572 95 c 0
 587 88 599 69 599 51 c 0
 599 28 583 8 560 2 c 0
 554 1 531 1 375 1 c 2
 198 2 l 1
 191 4 l 2
 175 11 164 23 159 39 c 0
 157 47 157 653 159 661 c 0
 165 680 180 694 199 698 c 1
EndSplineSet
EndChar
StartChar: F
Encoding: 70 70 70
Width: 723
Flags: W
Fore
248 697 m 0
 257 700 534 700 543 697 c 0
 560 693 573 682 579 666 c 0
 582 657 582 641 579 633 c 0
 573 616 560 605 543 601 c 0
 537 599 520 599 423 599 c 2
 309 599 l 1
 309 507 l 1
 309 414 l 1
 399 414 l 2
 459 414 492 414 496 413 c 0
 509 411 521 402 528 391 c 0
 547 361 530 321 496 315 c 0
 492 314 459 314 399 314 c 2
 309 314 l 1
 309 175 l 2
 309 23 309 30 303 17 c 0
 300 10 289 -1 282 -4 c 0
 267 -12 251 -12 236 -4 c 0
 229 -1 218 10 215 17 c 0
 209 30 209 6 209 348 c 2
 210 660 l 1
 212 666 l 2
 219 682 231 693 248 697 c 0
EndSplineSet
EndChar
StartChar: G
Encoding: 71 71 71
Width: 723
Flags: W
Fore
364 710 m 0
 379 712 407 712 423 710 c 0
 476 702 527 677 561 640 c 0
 577 623 582 615 584 601 c 0
 586 586 581 571 570 560 c 0
 554 544 532 540 512 551 c 1
 508 552 502 558 493 567 c 0
 473 587 458 597 436 604 c 0
 418 610 411 612 389 611 c 0
 371 611 368 611 358 609 c 0
 281 591 237 530 225 425 c 0
 223 406 223 338 225 313 c 0
 230 243 245 184 267 148 c 0
 286 117 313 99 353 90 c 0
 393 81 440 85 482 101 c 2
 493 105 l 1
 493 191 l 1
 493 277 l 1
 436 277 l 2
 399 277 376 277 372 278 c 0
 349 282 332 303 332 327 c 0
 332 351 349 372 372 376 c 0
 376 377 407 377 463 377 c 0
 555 377 554 377 566 371 c 0
 573 368 583 358 587 350 c 0
 593 338 593 344 593 201 c 0
 593 113 593 70 592 66 c 0
 590 53 582 41 572 34 c 0
 551 20 506 1 471 -6 c 0
 427 -16 390 -17 349 -11 c 0
 266 2 207 45 171 116 c 0
 158 143 143 189 136 227 c 0
 126 278 121 353 124 407 c 0
 128 465 138 513 156 555 c 0
 195 644 270 700 364 710 c 0
EndSplineSet
EndChar
StartChar: H
Encoding: 72 72 72
Width: 723
Flags: W
Fore
183 709 m 2
 184 710 189 710 194 709 c 1
 216 708 234 693 239 671 c 0
 241 665 241 646 241 537 c 2
 241 409 l 1
 362 409 l 1
 482 409 l 1
 482 537 l 2
 482 646 482 665 484 671 c 0
 488 688 499 701 516 707 c 0
 524 710 540 710 549 707 c 0
 565 701 576 688 580 671 c 0
 582 665 582 625 582 350 c 0
 582 6 582 30 576 17 c 0
 573 10 562 -1 555 -4 c 0
 540 -12 524 -12 509 -4 c 0
 502 -1 491 10 488 17 c 0
 482 30 482 23 482 172 c 2
 482 309 l 1
 362 309 l 1
 241 309 l 1
 241 172 l 2
 241 23 241 30 235 17 c 0
 232 10 221 -1 214 -4 c 0
 199 -12 183 -12 168 -4 c 0
 161 -1 150 10 147 17 c 0
 141 30 141 6 141 350 c 0
 141 693 141 670 147 682 c 0
 153 696 168 707 183 709 c 2
EndSplineSet
EndChar
StartChar: I
Encoding: 73 73 73
Width: 723
Flags: W
Fore
228 697 m 0
 236 699 483 700 493 698 c 0
 516 694 533 673 533 649 c 0
 533 625 516 604 493 600 c 0
 489 599 471 599 449 599 c 2
 411 599 l 1
 411 350 l 1
 411 101 l 1
 459 101 l 2
 489 101 509 101 513 100 c 0
 536 96 553 75 553 51 c 0
 553 27 536 6 513 2 c 0
 509 1 461 1 361 1 c 0
 238 1 214 1 209 2 c 0
 189 7 173 23 170 44 c 0
 166 69 183 94 209 100 c 0
 214 101 226 101 263 101 c 2
 311 101 l 1
 311 350 l 1
 311 599 l 1
 273 599 l 2
 231 599 226 600 216 605 c 0
 203 612 193 626 190 641 c 0
 186 666 203 692 228 697 c 0
EndSplineSet
EndChar
StartChar: J
Encoding: 74 74 74
Width: 723
Flags: W
Fore
430 709 m 2
 431 710 436 710 441 709 c 1
 463 708 481 693 486 671 c 0
 488 665 488 629 488 402 c 0
 488 222 488 138 487 133 c 0
 483 107 472 80 456 58 c 0
 448 47 430 28 418 20 c 0
 394 3 370 -7 341 -12 c 0
 257 -27 175 19 144 98 c 0
 134 121 131 140 131 167 c 0
 131 196 134 209 143 221 c 0
 159 242 188 246 210 231 c 0
 221 225 229 212 231 199 c 0
 232 193 232 190 231 182 c 0
 230 169 230 159 232 148 c 0
 238 118 261 94 292 87 c 0
 301 85 304 85 314 85 c 0
 344 87 369 102 382 126 c 0
 389 140 388 117 388 405 c 0
 388 688 388 670 394 682 c 0
 400 696 415 707 430 709 c 2
EndSplineSet
EndChar
StartChar: K
Encoding: 75 75 75
Width: 723
Flags: W
Fore
168 709 m 2
 169 710 174 710 179 709 c 1
 199 709 216 696 223 676 c 2
 226 670 l 1
 226 542 l 1
 227 414 l 1
 366 556 l 2
 446 638 507 700 510 702 c 0
 519 708 526 709 538 709 c 0
 550 709 557 707 566 701 c 0
 587 687 594 658 581 635 c 0
 579 631 564 615 532 583 c 0
 349 397 318 365 318 364 c 0
 318 363 381 297 459 217 c 0
 537 136 601 69 603 66 c 0
 611 53 612 38 608 24 c 0
 595 -12 551 -21 524 6 c 2
 372 163 l 1
 227 314 l 1
 226 172 l 1
 226 31 l 1
 223 24 l 2
 219 12 209 1 199 -5 c 0
 184 -12 168 -12 153 -4 c 0
 146 -1 135 10 132 17 c 0
 126 30 126 6 126 350 c 0
 126 693 126 670 132 682 c 0
 138 696 153 707 168 709 c 2
EndSplineSet
EndChar
StartChar: L
Encoding: 76 76 76
Width: 723
Flags: W
Fore
183 709 m 2
 184 710 189 710 194 709 c 1
 216 708 234 693 239 671 c 0
 241 665 241 629 241 383 c 2
 241 101 l 1
 402 101 l 2
 513 101 565 101 570 100 c 0
 583 98 595 89 602 78 c 0
 621 48 604 8 569 2 c 0
 564 1 507 1 372 1 c 2
 181 2 l 1
 175 4 l 2
 158 10 147 23 142 39 c 0
 141 44 141 83 141 354 c 0
 141 693 141 670 147 682 c 0
 153 696 168 707 183 709 c 2
EndSplineSet
EndChar
StartChar: M
Encoding: 77 77 77
Width: 723
Flags: W
Fore
154 709 m 2
 155 710 177 710 203 710 c 2
 250 709 l 1
 256 707 l 2
 268 702 278 693 283 682 c 2
 285 680 303 621 324 553 c 0
 344 484 362 428 362 429 c 2
 400 554 l 2
 423 633 438 681 440 684 c 0
 446 696 461 706 475 709 c 0
 479 710 494 710 526 710 c 0
 571 709 572 709 578 707 c 0
 594 700 605 688 609 671 c 0
 611 665 611 625 611 350 c 0
 611 6 611 30 605 17 c 0
 604 14 600 9 596 5 c 0
 570 -21 527 -11 514 24 c 2
 512 31 l 1
 511 304 l 1
 511 577 l 1
 459 407 l 2
 418 270 407 236 404 231 c 0
 397 219 385 210 371 207 c 0
 349 203 327 214 317 235 c 1
 315 237 291 315 263 408 c 2
 213 576 l 1
 212 303 l 1
 212 31 l 1
 209 24 l 2
 205 12 195 1 185 -5 c 0
 170 -12 154 -12 139 -4 c 0
 132 -1 121 10 118 17 c 0
 112 30 112 6 112 350 c 0
 112 693 112 670 118 682 c 0
 124 696 139 707 154 709 c 2
EndSplineSet
EndChar
StartChar: N
Encoding: 78 78 78
Width: 723
Flags: W
Fore
168 709 m 0
 174 710 218 710 223 709 c 0
 232 707 242 702 249 695 c 0
 256 688 245 710 386 414 c 2
 496 185 l 1
 496 427 l 1
 497 670 l 1
 499 676 l 2
 504 691 514 701 530 707 c 0
 534 709 537 709 546 709 c 0
 555 709 558 709 563 707 c 0
 579 701 590 688 594 671 c 0
 596 665 596 625 596 349 c 0
 596 3 596 28 590 17 c 0
 586 10 576 -1 569 -4 c 0
 558 -10 553 -10 525 -10 c 0
 500 -9 498 -9 493 -7 c 0
 484 -4 475 3 471 9 c 0
 468 12 433 85 346 265 c 2
 227 517 l 1
 226 274 l 1
 226 31 l 1
 223 24 l 2
 219 12 209 1 199 -5 c 0
 184 -12 168 -12 153 -4 c 0
 146 -1 135 10 132 17 c 0
 126 30 126 6 126 350 c 0
 126 693 126 670 132 682 c 0
 138 696 153 707 168 709 c 0
EndSplineSet
EndChar
StartChar: O
Encoding: 79 79 79
Width: 723
Flags: W
Fore
347 718 m 0
 354 719 382 718 391 717 c 0
 476 702 546 630 582 519 c 0
 605 449 613 371 604 296 c 0
 597 229 576 162 546 110 c 0
 516 59 477 21 433 2 c 0
 407 -9 389 -12 362 -12 c 0
 346 -12 340 -12 331 -10 c 0
 291 -3 256 16 225 47 c 0
 211 61 200 75 189 90 c 0
 133 173 106 297 118 411 c 0
 133 558 200 669 294 706 c 0
 311 713 324 716 347 718 c 0
386 616 m 0
 379 618 375 618 364 619 c 0
 355 619 349 619 345 618 c 0
 315 611 289 591 267 556 c 0
 241 517 224 463 217 400 c 0
 215 385 215 327 217 313 c 0
 228 214 265 134 315 101 c 0
 345 82 378 82 408 101 c 0
 458 134 495 214 506 313 c 0
 508 327 508 385 506 400 c 0
 499 463 482 517 456 556 c 0
 436 588 413 607 386 616 c 0
EndSplineSet
EndChar
StartChar: P
Encoding: 80 80 80
Width: 723
Flags: W
Fore
376 700 m 1
 377 702 412 700 424 699 c 0
 469 692 510 674 543 647 c 0
 580 615 604 569 610 516 c 0
 611 499 611 487 609 468 c 0
 608 450 605 438 600 423 c 0
 575 348 511 301 418 290 c 0
 394 287 376 286 309 286 c 2
 241 286 l 1
 241 161 l 2
 241 24 241 29 235 17 c 0
 232 10 221 -1 214 -4 c 0
 199 -12 183 -12 168 -4 c 0
 161 -1 150 10 147 17 c 0
 141 30 141 6 141 346 c 0
 141 617 141 656 142 661 c 0
 147 677 158 690 175 696 c 2
 181 698 l 1
 278 699 l 2
 331 699 375 700 376 700 c 1
421 598 m 0
 410 600 381 602 371 600 c 0
 368 600 337 599 303 599 c 2
 241 599 l 1
 241 492 l 1
 241 386 l 1
 318 386 l 2
 369 387 398 387 404 388 c 0
 429 392 446 397 462 405 c 0
 495 421 511 450 511 493 c 0
 511 524 501 550 482 568 c 0
 466 582 445 592 421 598 c 0
EndSplineSet
EndChar
StartChar: Q
Encoding: 81 81 81
Width: 723
Flags: W
Fore
335 712 m 0
 341 713 371 712 380 711 c 0
 449 699 501 657 539 581 c 0
 566 528 581 460 583 385 c 0
 585 303 569 220 540 162 c 2
 535 154 l 1
 569 111 l 2
 587 87 603 66 604 64 c 0
 613 46 612 27 601 11 c 0
 590 -4 571 -12 553 -9 c 0
 544 -8 533 -2 527 3 c 0
 524 6 511 22 497 41 c 0
 483 59 471 74 470 74 c 1
 470 74 467 72 464 69 c 0
 432 46 388 32 348 32 c 0
 305 32 260 47 224 75 c 0
 184 105 154 149 137 201 c 0
 123 247 119 283 117 399 c 0
 117 452 118 468 123 495 c 0
 133 552 161 609 197 647 c 0
 230 682 276 705 323 711 c 0
 327 712 333 712 335 712 c 0
367 612 m 0
 358 613 340 613 330 611 c 0
 303 607 278 591 261 569 c 0
 238 540 222 497 218 457 c 0
 217 445 218 322 220 299 c 0
 225 238 241 196 271 166 c 0
 287 150 302 141 322 135 c 0
 330 133 332 133 348 133 c 0
 366 133 373 134 388 140 c 0
 398 144 409 152 409 154 c 1
 408 154 387 182 361 216 c 0
 335 249 312 279 311 281 c 0
 299 300 301 325 317 341 c 0
 332 357 354 361 375 352 c 1
 385 345 l 2
 387 343 406 320 426 295 c 0
 465 244 465 244 465 245 c 1
 467 246 474 279 477 295 c 0
 481 322 483 337 482 374 c 0
 482 399 482 411 481 422 c 0
 477 453 471 484 463 506 c 0
 458 521 444 549 436 561 c 0
 416 590 395 606 367 612 c 0
EndSplineSet
EndChar
StartChar: R
Encoding: 82 82 82
Width: 723
Flags: W
Fore
191 697 m 0
 199 699 357 700 373 698 c 0
 408 694 442 685 473 671 c 0
 530 646 564 613 577 572 c 0
 582 556 583 538 581 507 c 0
 578 471 574 446 566 422 c 0
 547 363 508 321 453 301 c 2
 446 298 l 1
 514 180 l 2
 558 105 583 60 585 56 c 0
 592 35 584 11 566 -1 c 0
 545 -15 520 -12 503 5 c 0
 497 11 490 22 418 149 c 2
 339 286 l 1
 295 286 l 1
 252 286 l 1
 252 161 l 2
 252 24 252 29 246 17 c 0
 245 14 241 9 237 5 c 0
 217 -15 187 -15 167 5 c 0
 160 12 156 19 154 29 c 0
 151 39 151 649 153 659 c 0
 157 678 173 693 191 697 c 0
376 597 m 0
 365 599 359 599 308 599 c 2
 252 599 l 1
 252 492 l 1
 252 386 l 1
 320 386 l 2
 385 387 389 387 398 389 c 0
 433 396 451 410 465 437 c 0
 475 458 482 494 482 533 c 0
 482 543 482 544 479 548 c 0
 474 557 461 566 441 576 c 0
 420 586 400 593 376 597 c 0
EndSplineSet
EndChar
StartChar: S
Encoding: 83 83 83
Width: 723
Flags: W
Fore
343 712 m 0
 356 713 378 713 391 712 c 0
 461 706 516 673 548 619 c 0
 557 603 566 580 567 568 c 0
 568 560 566 549 562 541 c 0
 557 529 542 518 529 515 c 0
 513 511 495 516 483 528 c 0
 477 535 473 541 469 553 c 0
 458 584 433 604 396 611 c 0
 385 613 347 613 336 611 c 0
 297 603 266 580 255 551 c 0
 252 543 251 527 254 514 c 0
 260 484 275 466 316 443 c 2
 389 406 l 2
 452 375 469 365 488 353 c 0
 538 319 565 277 574 221 c 0
 576 205 576 173 574 157 c 0
 569 125 556 92 537 67 c 0
 528 55 511 38 499 30 c 0
 469 9 428 -7 386 -13 c 0
 300 -26 220 7 177 74 c 0
 160 99 147 137 147 160 c 0
 147 197 187 221 220 203 c 0
 234 196 242 183 246 165 c 0
 249 151 250 146 256 136 c 0
 267 114 288 97 314 89 c 0
 347 79 389 84 427 102 c 0
 451 114 465 133 473 160 c 0
 475 169 475 171 475 189 c 0
 475 207 475 209 473 218 c 0
 469 233 463 243 453 254 c 0
 436 270 425 277 344 317 c 0
 281 348 260 360 242 372 c 0
 182 412 153 465 153 533 c 0
 153 554 154 564 160 581 c 0
 171 614 193 643 223 667 c 0
 257 693 295 707 343 712 c 0
EndSplineSet
EndChar
StartChar: T
Encoding: 84 84 84
Width: 723
Flags: W
Fore
151 698 m 0
 159 699 560 700 570 698 c 0
 583 696 595 687 602 676 c 0
 621 646 604 606 570 600 c 0
 566 599 537 599 487 599 c 2
 411 599 l 1
 411 317 l 2
 411 9 411 30 405 17 c 0
 402 10 391 -1 384 -4 c 0
 369 -12 353 -12 338 -4 c 0
 331 -1 320 10 317 17 c 0
 311 30 311 9 311 317 c 2
 311 599 l 1
 235 599 l 2
 152 599 151 599 140 604 c 0
 113 618 104 652 121 677 c 0
 128 687 139 695 151 698 c 0
EndSplineSet
EndChar
StartChar: U
Encoding: 85 85 85
Width: 723
Flags: W
Fore
168 709 m 2
 169 710 174 710 179 709 c 1
 199 709 216 696 223 676 c 2
 226 670 l 1
 226 425 l 1
 227 180 l 1
 229 170 l 2
 240 132 266 105 305 94 c 0
 323 89 334 88 362 88 c 0
 389 88 400 89 418 94 c 0
 457 105 484 133 494 170 c 2
 496 180 l 1
 496 422 l 2
 496 636 496 665 497 670 c 0
 501 688 513 701 530 707 c 0
 534 709 537 709 546 709 c 0
 555 709 558 709 563 707 c 0
 575 702 585 693 590 682 c 0
 596 670 596 686 596 421 c 0
 596 150 597 168 589 143 c 0
 571 74 520 22 452 0 c 0
 405 -15 343 -17 292 -6 c 0
 205 14 143 78 128 165 c 0
 127 175 127 192 126 420 c 0
 126 687 126 670 132 682 c 0
 138 696 153 707 168 709 c 2
EndSplineSet
EndChar
StartChar: V
Encoding: 86 86 86
Width: 723
Flags: W
Fore
154 709 m 0
 170 712 185 707 197 695 c 0
 201 691 205 686 206 683 c 0
 208 679 236 577 285 392 c 0
 327 235 361 107 361 106 c 1
 435 384 l 2
 476 537 511 666 512 671 c 0
 514 677 517 684 519 687 c 0
 530 705 551 713 572 708 c 0
 594 703 610 683 610 661 c 0
 610 653 604 629 527 339 c 0
 481 166 442 23 442 22 c 1
 436 7 421 -6 405 -9 c 0
 395 -11 325 -10 317 -9 c 0
 303 -6 289 5 283 17 c 0
 281 22 255 117 196 338 c 0
 118 631 113 652 113 660 c 0
 112 681 126 700 146 707 c 0
 149 708 153 709 154 709 c 0
EndSplineSet
EndChar
StartChar: W
Encoding: 87 87 87
Width: 723
Flags: W
Fore
154 709 m 1
 159 710 167 710 172 709 c 0
 191 705 207 689 211 670 c 1
 211 667 212 650 213 633 c 0
 218 479 226 360 237 268 c 0
 240 240 246 199 247 199 c 1
 277 300 l 2
 293 356 307 404 309 407 c 0
 312 414 323 425 330 428 c 0
 333 430 339 432 342 432 c 2
 350 434 371 434 380 433 c 0
 394 430 407 420 414 407 c 0
 416 404 427 366 447 302 c 0
 473 212 477 202 477 206 c 1
 479 214 485 262 488 288 c 0
 497 373 505 489 509 613 c 0
 511 663 511 667 513 675 c 0
 521 700 546 714 572 708 c 0
 589 704 602 692 608 676 c 0
 611 667 611 659 609 611 c 0
 600 370 586 227 555 72 c 0
 545 20 544 15 533 5 c 0
 521 -7 503 -12 488 -9 c 0
 481 -7 448 6 442 10 c 0
 436 13 429 22 425 28 c 0
 424 30 410 78 393 134 c 2
 362 235 l 1
 331 130 l 2
 314 72 299 22 298 18 c 1
 294 10 284 0 276 -4 c 0
 266 -9 259 -10 239 -10 c 0
 226 -10 219 -10 214 -8 c 1
 197 -4 184 7 178 23 c 0
 176 30 164 87 158 121 c 0
 139 227 128 336 120 472 c 0
 116 537 113 619 113 651 c 0
 113 667 113 669 115 675 c 0
 119 686 125 695 134 701 c 0
 139 705 149 709 154 709 c 1
EndSplineSet
EndChar
StartChar: X
Encoding: 88 88 88
Width: 723
Flags: W
Fore
176 709 m 0
 184 711 197 710 205 707 c 0
 213 704 221 698 226 692 c 0
 228 689 259 634 295 569 c 2
 361 452 l 1
 361 451 391 504 428 570 c 0
 490 682 494 689 500 695 c 0
 517 712 542 715 563 701 c 0
 582 689 590 662 581 642 c 0
 580 639 545 575 503 500 c 0
 461 424 426 362 425 360 c 0
 424 358 433 342 505 209 c 0
 550 127 587 58 588 55 c 0
 592 42 590 26 583 14 c 0
 576 2 562 -7 548 -9 c 0
 530 -12 512 -5 502 9 c 0
 499 12 376 237 363 262 c 0
 361 265 360 263 292 138 c 0
 226 17 223 11 217 5 c 0
 198 -15 167 -15 147 5 c 0
 134 18 129 38 135 56 c 0
 136 59 173 128 218 209 c 2
 298 358 l 1
 298 359 263 423 220 500 c 0
 177 577 142 642 141 645 c 0
 138 652 137 662 139 669 c 0
 143 688 158 704 176 709 c 0
EndSplineSet
EndChar
StartChar: Y
Encoding: 89 89 89
Width: 723
Flags: W
Fore
177 709 m 2
 178 710 183 710 188 709 c 1
 201 709 214 703 222 693 c 0
 225 690 248 649 293 563 c 0
 330 495 360 438 361 437 c 1
 361 436 376 463 417 541 c 0
 448 598 479 655 485 667 c 0
 495 685 497 689 503 695 c 0
 520 712 546 715 566 701 c 0
 583 689 591 666 586 647 c 0
 585 643 549 575 497 479 c 2
 411 317 l 1
 411 176 l 2
 411 23 411 30 405 17 c 0
 404 14 400 9 396 5 c 0
 380 -11 359 -14 338 -4 c 0
 331 -1 320 10 317 17 c 0
 311 30 311 23 311 177 c 2
 311 318 l 1
 225 479 l 2
 178 568 138 643 137 646 c 0
 135 654 135 669 138 677 c 0
 145 694 158 706 177 709 c 2
EndSplineSet
EndChar
StartChar: Z
Encoding: 90 90 90
Width: 723
Flags: W
Fore
184 698 m 1
 186 698 251 699 345 699 c 0
 517 699 509 699 521 693 c 0
 540 683 550 661 547 641 c 0
 546 637 544 631 542 625 c 1
 539 620 478 501 406 360 c 0
 333 219 274 103 273 103 c 1
 273 101 286 101 405 101 c 0
 518 101 537 101 543 99 c 0
 560 95 573 84 579 68 c 0
 582 59 582 43 579 35 c 0
 573 18 560 6 543 2 c 0
 537 1 514 1 358 1 c 2
 181 2 l 1
 175 4 l 2
 158 10 147 23 142 39 c 1
 141 46 141 60 143 66 c 1
 280 334 l 1
 416 599 l 1
 300 599 l 1
 184 600 l 1
 178 602 l 2
 170 605 164 608 159 613 c 0
 134 637 141 679 172 694 c 2
 184 698 l 1
EndSplineSet
EndChar
StartChar: bracketleft
Encoding: 91 91 91
Width: 723
Flags: W
Fore
248 768 m 1
 253 770 277 770 404 770 c 2
 554 770 l 1
 559 767 l 1
 580 759 593 741 593 720 c 0
 593 699 580 681 559 673 c 2
 554 671 l 1
 431 670 l 1
 309 670 l 1
 309 379 l 1
 309 87 l 1
 431 87 l 1
 554 87 l 1
 559 84 l 1
 580 76 593 58 593 37 c 0
 593 16 580 -2 559 -10 c 2
 554 -12 l 1
 404 -13 l 2
 274 -13 254 -13 248 -12 c 0
 231 -7 218 4 212 21 c 2
 210 28 l 1
 210 379 l 1
 210 730 l 1
 212 736 l 2
 218 753 231 764 248 768 c 1
EndSplineSet
EndChar
StartChar: backslash
Encoding: 92 92 92
Width: 723
Flags: W
Fore
213 769 m 0
 221 770 223 770 230 769 c 0
 245 766 260 756 266 742 c 0
 270 735 544 63 548 52 c 0
 551 44 551 31 548 22 c 0
 540 -2 515 -17 492 -12 c 0
 478 -9 466 -1 459 10 c 0
 457 13 196 649 177 698 c 0
 170 716 171 729 178 743 c 0
 185 756 200 767 213 769 c 0
EndSplineSet
EndChar
StartChar: bracketright
Encoding: 93 93 93
Width: 723
Flags: W
Fore
170 769 m 0
 172 769 233 770 321 770 c 0
 482 770 475 770 487 764 c 0
 500 757 510 744 513 730 c 0
 515 720 515 36 512 26 c 0
 508 7 494 -7 475 -11 c 0
 469 -13 448 -13 322 -13 c 0
 222 -13 174 -13 170 -12 c 0
 147 -8 130 13 130 37 c 0
 130 61 147 82 170 86 c 0
 174 87 215 87 295 87 c 2
 414 87 l 1
 414 379 l 1
 414 670 l 1
 295 670 l 2
 215 670 174 670 170 671 c 0
 157 673 144 682 137 694 c 0
 127 709 127 731 137 746 c 0
 144 757 157 767 170 769 c 0
EndSplineSet
EndChar
StartChar: asciicircum
Encoding: 94 94 94
Width: 723
Flags: W
Fore
349 762 m 1
 365 767 384 762 395 751 c 0
 398 748 435 693 503 592 c 0
 616 421 610 432 610 416 c 0
 610 388 588 366 561 366 c 0
 550 366 541 369 533 374 c 0
 529 377 503 404 445 465 c 2
 361 553 l 1
 286 474 l 2
 195 378 194 376 188 373 c 0
 178 367 165 364 153 366 c 1
 151 367 145 369 141 371 c 0
 117 382 106 411 117 436 c 0
 118 439 166 510 222 595 c 0
 310 727 325 748 329 752 c 1
 336 757 342 761 349 762 c 1
EndSplineSet
EndChar
StartChar: underscore
Encoding: 95 95 95
Width: 723
Flags: W
Fore
151 -108 m 1
 156 -106 194 -106 361 -106 c 0
 501 -106 565 -106 570 -107 c 0
 589 -111 606 -128 610 -147 c 0
 612 -156 611 -187 610 -195 c 0
 607 -209 597 -222 584 -229 c 0
 572 -235 585 -235 362 -235 c 0
 138 -235 151 -235 139 -229 c 0
 126 -222 116 -209 113 -195 c 0
 112 -187 111 -156 113 -147 c 0
 117 -128 132 -112 151 -108 c 1
EndSplineSet
EndChar
StartChar: quoteleft
Encoding: 96 8216 96
Width: 723
Flags: W
Fore
296 766 m 0
 314 770 333 763 344 750 c 0
 351 742 406 654 408 648 c 0
 409 645 410 639 411 634 c 1
 413 590 359 565 327 596 c 0
 319 604 264 691 260 701 c 0
 251 729 268 759 296 766 c 0
EndSplineSet
EndChar
StartChar: a
Encoding: 97 97 97
Width: 723
Flags: W
Fore
334 540 m 0
 370 544 416 540 448 529 c 0
 514 506 555 455 569 378 c 0
 574 352 574 352 574 187 c 0
 574 58 574 31 572 26 c 1
 568 7 554 -7 535 -11 c 0
 527 -13 521 -13 513 -11 c 0
 490 -6 474 14 474 39 c 2
 474 45 l 1
 471 43 l 1
 462 34 436 17 420 9 c 0
 409 3 386 -5 373 -8 c 0
 322 -22 271 -17 227 5 c 0
 182 27 149 63 134 108 c 0
 127 128 125 148 127 170 c 0
 133 236 174 286 241 313 c 0
 282 329 326 334 438 337 c 2
 474 337 l 1
 474 344 l 2
 471 371 462 397 451 411 c 0
 439 426 423 434 398 439 c 0
 388 441 383 441 364 441 c 0
 343 441 339 441 329 439 c 0
 305 434 280 424 263 412 c 0
 246 400 244 399 239 397 c 0
 234 395 231 395 222 395 c 0
 213 395 211 395 205 397 c 0
 185 405 173 422 173 444 c 0
 172 465 181 477 209 496 c 0
 245 520 289 536 334 540 c 0
474 218 m 1
 474 237 l 1
 454 237 l 2
 424 237 382 235 359 234 c 0
 313 231 290 227 267 216 c 0
 240 202 226 181 226 155 c 0
 226 127 251 99 285 89 c 0
 315 79 353 85 385 104 c 0
 398 111 410 121 425 135 c 0
 440 151 451 165 465 184 c 2
 474 198 l 1
 474 218 l 1
EndSplineSet
EndChar
StartChar: b
Encoding: 98 98 98
Width: 723
Flags: W
Fore
165 769 m 0
 173 770 175 770 182 769 c 0
 197 767 211 756 218 743 c 0
 224 731 224 736 224 602 c 2
 224 481 l 1
 234 488 l 2
 248 499 260 506 277 514 c 0
 329 539 380 543 441 527 c 0
 536 501 595 427 609 319 c 0
 611 298 611 256 608 228 c 0
 603 179 597 151 586 124 c 0
 557 50 490 -3 409 -15 c 0
 401 -16 392 -16 378 -16 c 0
 360 -16 355 -16 342 -14 c 0
 303 -7 265 9 233 34 c 2
 225 40 l 1
 224 34 l 2
 222 20 217 10 209 2 c 0
 196 -11 179 -15 163 -11 c 0
 144 -7 130 7 126 26 c 0
 123 36 123 720 125 730 c 0
 130 749 146 766 165 769 c 0
392 435 m 0
 382 437 363 437 355 436 c 0
 336 433 311 421 294 409 c 0
 268 390 248 367 232 340 c 2
 224 327 l 1
 224 263 l 1
 224 200 l 1
 231 187 l 2
 242 164 257 145 274 128 c 0
 301 104 328 90 360 84 c 0
 370 82 394 83 404 85 c 0
 428 91 447 101 464 117 c 0
 492 143 505 180 510 250 c 0
 514 308 506 349 484 382 c 0
 478 392 463 407 455 413 c 0
 438 424 417 431 392 435 c 0
EndSplineSet
EndChar
StartChar: c
Encoding: 99 99 99
Width: 723
Flags: W
Fore
361 534 m 0
 390 536 427 534 453 528 c 0
 504 515 540 482 555 437 c 0
 562 414 559 395 545 381 c 0
 535 371 523 366 510 366 c 0
 496 366 484 371 474 380 c 0
 468 387 465 392 461 405 c 0
 457 415 453 420 443 425 c 0
 429 433 410 436 383 435 c 0
 343 433 323 427 306 410 c 0
 296 400 291 393 284 379 c 0
 272 354 267 328 266 283 c 0
 265 203 275 153 298 121 c 0
 318 95 347 82 386 83 c 0
 413 84 435 92 450 106 c 0
 458 115 462 123 467 137 c 0
 471 149 475 156 482 162 c 0
 517 194 573 162 564 115 c 0
 558 86 540 54 518 33 c 0
 464 -18 371 -32 295 0 c 0
 245 21 205 66 186 124 c 0
 171 165 165 219 166 282 c 0
 167 336 174 371 188 408 c 0
 199 436 215 460 235 480 c 0
 252 498 270 509 293 519 c 0
 311 526 332 531 361 534 c 0
EndSplineSet
EndChar
StartChar: d
Encoding: 100 100 100
Width: 723
Flags: W
Fore
540 769 m 0
 548 770 550 770 557 769 c 0
 577 766 593 750 598 730 c 0
 600 720 600 36 597 26 c 0
 593 7 579 -7 560 -11 c 0
 544 -15 527 -11 514 2 c 0
 505 10 501 20 499 34 c 1
 499 40 l 1
 488 33 l 2
 453 7 418 -8 379 -14 c 0
 364 -16 334 -16 317 -13 c 0
 236 -1 180 38 145 105 c 0
 122 150 111 208 112 278 c 0
 113 327 119 359 133 393 c 0
 147 428 171 460 203 484 c 0
 238 511 278 528 318 534 c 0
 374 543 432 528 485 492 c 2
 499 483 l 1
 499 603 l 2
 499 736 499 731 505 743 c 0
 512 756 526 767 540 769 c 0
368 435 m 0
 358 437 340 437 330 435 c 0
 293 429 255 405 236 376 c 0
 225 360 218 340 214 310 c 0
 212 297 212 238 214 223 c 0
 219 176 233 143 256 120 c 0
 272 104 287 96 314 89 c 0
 361 77 396 86 440 121 c 0
 468 144 487 167 497 193 c 2
 499 199 l 1
 499 263 l 1
 499 327 l 1
 494 337 l 2
 469 387 418 427 368 435 c 0
EndSplineSet
EndChar
StartChar: e
Encoding: 101 101 101
Width: 723
Flags: W
Fore
345 541 m 0
 353 542 392 541 403 540 c 0
 430 536 452 529 474 519 c 0
 533 490 572 436 586 363 c 0
 589 348 594 314 595 298 c 0
 597 282 596 274 590 263 c 0
 586 254 577 245 569 241 c 0
 556 235 565 235 389 235 c 2
 228 235 l 1
 228 230 l 1
 229 227 230 218 232 210 c 0
 241 163 262 127 288 109 c 0
 303 99 326 90 349 86 c 0
 360 84 397 84 410 86 c 0
 434 90 445 95 458 107 c 0
 469 117 477 122 489 123 c 0
 512 126 533 113 542 91 c 0
 544 86 544 83 544 74 c 0
 544 58 541 50 528 36 c 0
 501 9 465 -7 414 -14 c 0
 377 -18 342 -16 306 -6 c 0
 265 4 227 26 201 52 c 0
 155 101 129 173 126 262 c 0
 124 350 150 423 204 477 c 0
 217 490 228 499 242 508 c 0
 273 528 300 537 345 541 c 0
400 439 m 0
 389 441 354 443 341 441 c 0
 332 440 317 436 309 432 c 0
 278 417 249 383 236 345 c 2
 233 336 l 1
 361 335 l 1
 489 335 l 1
 489 336 489 339 488 343 c 0
 478 398 450 429 400 439 c 0
EndSplineSet
EndChar
StartChar: f
Encoding: 102 102 102
Width: 723
Flags: W
Fore
507 766 m 0
 524 768 535 766 546 762 c 0
 572 749 581 715 565 690 c 0
 556 675 540 667 520 667 c 0
 499 667 462 658 445 649 c 0
 431 642 422 633 415 618 c 0
 406 601 404 590 404 572 c 0
 404 563 404 551 405 544 c 2
 406 531 l 1
 471 531 l 2
 536 530 537 530 542 528 c 0
 563 520 576 502 576 481 c 0
 576 460 563 442 542 434 c 0
 537 432 536 432 472 431 c 2
 407 431 l 1
 407 387 l 2
 410 213 411 34 410 28 c 0
 407 11 394 -4 378 -10 c 0
 351 -19 323 -5 314 22 c 0
 312 27 312 31 311 47 c 0
 311 65 307 405 307 422 c 2
 307 431 l 1
 250 431 l 2
 214 431 191 431 188 432 c 0
 164 436 147 457 147 481 c 0
 147 505 164 526 188 530 c 0
 191 531 214 531 250 531 c 2
 306 531 l 1
 306 537 l 1
 303 556 303 565 303 577 c 0
 305 609 312 637 327 665 c 0
 352 715 393 744 458 758 c 0
 472 762 495 765 507 766 c 0
EndSplineSet
EndChar
StartChar: g
Encoding: 103 103 103
Width: 723
Flags: W
Fore
326 536 m 0
 334 537 368 536 379 535 c 0
 417 529 449 516 478 493 c 0
 482 490 485 488 485 489 c 2
 485 489 486 491 486 494 c 0
 488 505 498 519 509 526 c 0
 524 536 546 536 561 526 c 0
 573 519 582 506 584 493 c 0
 585 488 585 421 585 273 c 0
 585 113 585 58 586 52 c 0
 588 40 588 5 586 -9 c 0
 578 -61 555 -109 523 -139 c 0
 510 -152 487 -165 466 -173 c 0
 434 -183 388 -190 348 -189 c 0
 323 -188 284 -185 268 -182 c 0
 224 -175 191 -155 169 -122 c 0
 157 -104 151 -88 152 -75 c 0
 156 -40 193 -19 225 -36 c 0
 233 -39 243 -50 247 -59 c 0
 258 -78 268 -83 309 -87 c 0
 350 -90 379 -90 408 -85 c 0
 445 -78 459 -69 473 -41 c 0
 486 -16 490 14 487 44 c 0
 486 52 485 61 485 66 c 2
 485 74 l 1
 477 67 l 2
 448 44 418 31 374 23 c 0
 345 17 326 17 301 21 c 0
 234 32 190 61 158 116 c 0
 127 167 114 221 115 282 c 0
 117 325 122 357 133 388 c 0
 158 461 214 513 287 530 c 0
 297 532 311 535 326 536 c 0
364 436 m 0
 353 437 331 437 321 435 c 0
 295 431 273 421 256 403 c 0
 235 382 223 356 217 315 c 0
 215 300 214 260 216 248 c 0
 222 196 248 146 278 131 c 0
 294 123 318 117 337 118 c 0
 358 119 386 126 399 134 c 0
 419 146 453 183 478 223 c 2
 485 233 l 1
 485 276 l 1
 485 319 l 1
 479 330 l 2
 463 366 437 400 413 418 c 0
 399 427 383 434 364 436 c 0
EndSplineSet
EndChar
StartChar: h
Encoding: 104 104 104
Width: 723
Flags: W
Fore
196 769 m 0
 204 770 206 770 213 769 c 0
 228 767 242 756 249 743 c 0
 255 731 255 735 255 605 c 2
 255 487 l 1
 261 492 l 2
 279 505 302 518 323 525 c 0
 364 540 414 541 453 528 c 0
 498 513 532 480 550 434 c 0
 558 414 562 396 566 364 c 0
 567 357 567 306 568 194 c 0
 568 52 568 32 567 27 c 0
 562 7 548 -7 529 -11 c 0
 518 -14 507 -13 495 -7 c 0
 484 -2 474 10 470 24 c 0
 469 27 468 59 468 191 c 0
 467 340 467 355 466 365 c 0
 458 410 443 429 412 436 c 0
 400 438 377 437 364 434 c 0
 352 431 338 424 329 418 c 0
 307 403 284 376 262 338 c 2
 255 327 l 1
 255 180 l 2
 255 53 255 32 253 26 c 0
 249 7 235 -7 216 -11 c 0
 208 -13 202 -13 194 -11 c 0
 175 -7 161 7 157 26 c 0
 154 36 154 720 156 730 c 0
 161 749 177 766 196 769 c 0
EndSplineSet
EndChar
StartChar: i
Encoding: 105 105 105
Width: 723
Flags: W
Fore
356 768 m 0
 366 770 415 770 424 768 c 0
 443 764 457 750 461 731 c 0
 464 722 464 672 461 663 c 0
 457 644 443 630 424 626 c 0
 415 623 366 623 357 625 c 0
 338 629 322 645 318 664 c 0
 316 673 316 721 318 730 c 0
 322 749 338 764 356 768 c 0
221 521 m 1
 223 521 265 522 320 522 c 0
 400 522 415 522 421 520 c 0
 440 516 454 502 458 483 c 0
 461 473 461 36 458 26 c 0
 454 7 440 -7 421 -11 c 0
 413 -13 407 -13 399 -11 c 0
 380 -7 366 7 362 26 c 0
 360 32 360 59 360 227 c 2
 360 422 l 1
 294 422 l 2
 251 422 225 422 221 423 c 0
 208 425 196 434 189 445 c 0
 173 470 182 504 209 517 c 2
 221 521 l 1
EndSplineSet
EndChar
StartChar: j
Encoding: 106 106 106
Width: 723
Flags: W
Fore
356 768 m 0
 366 770 415 770 424 768 c 0
 443 764 457 750 461 731 c 0
 464 722 464 672 461 663 c 0
 457 644 443 630 424 626 c 0
 415 623 366 623 357 625 c 0
 338 629 322 645 318 664 c 0
 316 673 316 721 318 730 c 0
 322 749 338 764 356 768 c 0
248 520 m 0
 257 523 406 523 415 520 c 0
 434 516 448 502 453 482 c 0
 454 477 454 447 454 236 c 0
 453 -24 454 -11 448 -38 c 0
 436 -95 401 -140 351 -165 c 0
 319 -180 288 -184 243 -181 c 0
 233 -180 218 -179 209 -178 c 0
 200 -178 190 -176 188 -176 c 1
 164 -169 149 -144 153 -120 c 0
 156 -105 166 -91 180 -84 c 0
 193 -77 202 -77 243 -81 c 0
 278 -84 292 -82 309 -74 c 0
 318 -70 320 -68 328 -60 c 0
 344 -44 351 -28 353 2 c 0
 354 9 354 94 354 218 c 2
 354 422 l 1
 304 422 l 2
 264 422 253 422 248 424 c 1
 231 428 218 439 212 456 c 0
 209 464 209 480 212 489 c 0
 218 505 231 516 248 520 c 0
EndSplineSet
EndChar
StartChar: k
Encoding: 107 107 107
Width: 723
Flags: W
Fore
213 769 m 0
 221 770 223 770 230 769 c 0
 250 766 266 750 271 730 c 0
 272 725 272 695 272 533 c 2
 272 343 l 1
 274 343 l 2
 276 343 302 366 367 426 c 0
 480 530 474 524 482 528 c 0
 501 537 523 534 538 519 c 0
 555 503 558 476 545 457 c 0
 542 452 520 431 458 374 c 0
 412 332 373 296 371 294 c 2
 367 290 l 1
 465 185 l 2
 519 127 566 77 570 73 c 0
 585 56 589 35 579 15 c 0
 566 -12 532 -21 507 -4 c 0
 504 -2 464 40 388 121 c 0
 326 188 274 243 273 243 c 0
 272 243 272 221 272 138 c 0
 272 48 272 32 270 26 c 0
 266 7 252 -7 233 -11 c 0
 225 -13 219 -13 211 -11 c 0
 192 -7 178 7 174 26 c 0
 171 36 171 720 173 730 c 0
 178 749 194 766 213 769 c 0
EndSplineSet
EndChar
StartChar: l
Encoding: 108 108 108
Width: 723
Flags: W
Fore
297 768 m 0
 305 770 309 770 317 769 c 1
 327 766 335 762 342 755 c 0
 349 748 353 741 356 732 c 0
 358 722 357 576 353 424 c 0
 350 285 350 194 355 169 c 0
 360 134 371 115 393 105 c 0
 412 95 428 93 476 93 c 0
 499 92 512 92 515 91 c 0
 528 88 541 78 547 67 c 0
 551 58 553 52 553 43 c 0
 553 19 537 -1 514 -6 c 0
 504 -8 445 -8 426 -6 c 0
 364 1 320 23 291 63 c 0
 269 93 258 129 253 182 c 0
 251 203 251 335 253 421 c 0
 256 530 256 545 257 639 c 0
 258 728 258 729 260 735 c 0
 266 752 280 765 297 768 c 0
EndSplineSet
EndChar
StartChar: m
Encoding: 109 109 109
Width: 723
Flags: W
Fore
267 536 m 0
 276 537 296 536 306 534 c 0
 316 532 329 528 337 524 c 0
 352 517 370 502 377 492 c 2
 380 488 l 1
 388 496 l 2
 400 507 413 516 427 523 c 0
 447 533 460 536 482 536 c 0
 497 536 507 535 521 530 c 0
 562 516 592 483 605 436 c 0
 611 413 610 423 611 219 c 0
 611 56 611 32 610 27 c 0
 605 7 591 -7 572 -11 c 0
 561 -14 550 -13 538 -7 c 0
 527 -2 517 10 513 24 c 0
 512 27 511 62 511 215 c 2
 510 403 l 1
 508 410 l 2
 504 424 500 431 492 435 c 0
 480 440 470 436 456 422 c 0
 437 403 422 372 414 339 c 2
 412 327 l 1
 411 177 l 2
 411 56 410 27 409 24 c 0
 403 5 390 -7 372 -11 c 0
 364 -13 358 -13 350 -11 c 0
 331 -7 317 7 312 27 c 0
 311 33 311 54 311 218 c 0
 311 401 311 403 309 410 c 0
 305 424 300 431 292 435 c 0
 281 440 269 436 256 424 c 0
 239 406 224 374 215 337 c 2
 213 326 l 1
 212 177 l 2
 212 56 211 27 210 24 c 0
 204 5 191 -7 173 -11 c 0
 165 -13 159 -13 151 -11 c 0
 132 -7 118 7 114 26 c 0
 112 32 112 63 112 260 c 0
 112 418 112 488 113 492 c 0
 119 523 151 541 180 530 c 0
 187 527 196 521 201 515 c 1
 204 510 l 1
 210 514 l 2
 227 526 247 533 267 536 c 0
EndSplineSet
EndChar
StartChar: n
Encoding: 110 110 110
Width: 723
Flags: W
Fore
376 536 m 0
 397 538 441 532 469 523 c 0
 483 519 503 509 515 500 c 0
 527 492 543 476 552 464 c 0
 574 435 587 399 592 358 c 0
 596 333 596 314 596 174 c 0
 596 53 596 32 594 26 c 0
 590 7 576 -7 557 -11 c 0
 546 -14 535 -13 523 -7 c 0
 512 -2 502 10 498 24 c 0
 497 27 496 57 496 182 c 0
 495 319 495 337 494 346 c 0
 489 378 480 397 465 412 c 0
 453 424 442 429 418 434 c 0
 400 437 380 437 364 434 c 0
 329 427 311 417 285 392 c 0
 264 370 248 348 234 321 c 2
 226 304 l 1
 226 168 l 2
 226 52 226 32 224 26 c 0
 220 7 206 -7 187 -11 c 0
 179 -13 173 -13 165 -11 c 0
 146 -7 132 7 128 26 c 0
 126 32 126 63 126 260 c 0
 126 417 126 488 127 493 c 0
 129 506 138 519 150 526 c 0
 161 533 178 535 191 531 c 0
 212 524 226 505 226 480 c 0
 226 477 226 474 227 474 c 1
 227 474 230 477 234 480 c 0
 273 513 317 530 376 536 c 0
EndSplineSet
EndChar
StartChar: o
Encoding: 111 111 111
Width: 723
Flags: W
Fore
334 540 m 0
 383 546 438 536 479 514 c 0
 500 503 521 487 536 471 c 0
 575 431 599 378 607 315 c 0
 617 241 606 167 578 113 c 0
 547 54 499 14 437 -5 c 0
 413 -12 391 -15 362 -15 c 0
 325 -15 297 -10 266 2 c 0
 189 33 136 102 119 191 c 0
 108 247 111 311 125 363 c 0
 155 464 231 529 334 540 c 0
394 439 m 0
 387 441 380 441 366 442 c 0
 341 442 329 440 310 434 c 0
 263 418 230 378 218 323 c 0
 214 305 213 293 212 272 c 0
 211 228 217 194 231 164 c 0
 248 128 276 103 312 91 c 0
 329 86 338 85 362 85 c 0
 385 85 394 86 411 91 c 0
 432 98 448 108 464 124 c 0
 490 150 506 189 510 237 c 0
 511 253 511 288 509 303 c 0
 502 347 488 378 464 403 c 0
 444 422 423 433 394 439 c 0
EndSplineSet
EndChar
StartChar: p
Encoding: 112 112 112
Width: 723
Flags: W
Fore
351 536 m 0
 362 537 391 536 404 534 c 0
 488 522 548 480 582 412 c 0
 597 381 605 349 609 305 c 0
 611 284 611 233 609 215 c 0
 603 168 591 129 572 96 c 0
 536 33 484 -1 406 -13 c 0
 385 -16 357 -16 339 -13 c 0
 314 -9 297 -3 274 9 c 0
 259 16 241 26 230 35 c 2
 225 40 l 1
 224 -52 l 2
 224 -138 223 -144 222 -148 c 0
 213 -171 196 -183 174 -183 c 0
 150 -183 130 -166 125 -143 c 0
 124 -134 124 484 125 493 c 0
 127 506 136 519 148 526 c 0
 159 533 176 535 189 531 c 0
 207 525 221 509 223 490 c 2
 224 481 l 1
 232 487 l 2
 268 515 309 531 351 536 c 0
394 435 m 0
 357 441 324 432 290 406 c 0
 266 387 246 364 230 335 c 2
 224 325 l 1
 224 264 l 1
 224 203 l 1
 231 190 l 2
 256 144 283 115 318 98 c 0
 348 82 375 80 413 90 c 0
 437 96 451 104 466 118 c 0
 476 129 483 139 490 154 c 0
 499 172 505 191 509 218 c 0
 510 227 510 235 510 261 c 0
 510 295 509 307 505 327 c 0
 498 362 485 387 463 406 c 0
 446 420 423 430 394 435 c 0
EndSplineSet
EndChar
StartChar: q
Encoding: 113 113 113
Width: 723
Flags: W
Fore
330 536 m 0
 384 541 440 525 488 488 c 2
 499 480 l 1
 499 483 l 2
 499 500 509 517 523 526 c 0
 534 533 551 535 564 531 c 0
 581 526 595 510 598 493 c 0
 599 484 599 -134 598 -143 c 0
 593 -166 573 -183 549 -183 c 0
 525 -183 505 -166 500 -143 c 0
 499 -139 499 -108 499 -48 c 0
 499 0 499 40 498 40 c 1
 498 40 495 38 492 35 c 0
 461 11 423 -6 384 -13 c 0
 366 -16 338 -16 317 -13 c 0
 269 -6 230 11 199 37 c 0
 158 71 129 125 118 186 c 0
 114 210 113 225 113 259 c 0
 113 302 115 329 122 359 c 0
 144 448 202 506 289 528 c 0
 301 531 319 535 330 536 c 0
378 434 m 0
 365 437 343 438 328 435 c 0
 299 430 277 420 260 406 c 0
 238 387 225 362 218 327 c 0
 213 306 213 295 213 259 c 0
 213 223 213 216 219 192 c 0
 227 156 246 124 271 107 c 0
 299 88 347 79 378 87 c 0
 423 99 468 139 493 189 c 2
 499 201 l 1
 499 262 l 1
 499 323 l 1
 496 329 l 2
 486 348 471 369 454 386 c 0
 429 412 405 427 378 434 c 0
EndSplineSet
EndChar
StartChar: r
Encoding: 114 114 114
Width: 723
Flags: W
Fore
425 535 m 0
 477 542 520 528 553 496 c 0
 569 479 579 462 586 441 c 0
 593 420 595 397 591 384 c 0
 588 372 581 364 571 357 c 0
 544 339 507 352 496 382 c 1
 496 384 494 392 494 398 c 1
 491 415 486 425 473 432 c 0
 465 436 457 437 443 437 c 0
 422 436 398 430 385 423 c 0
 377 418 362 404 354 393 c 0
 331 358 315 320 306 278 c 2
 303 264 l 1
 303 148 l 2
 303 50 303 32 301 26 c 0
 297 7 283 -7 264 -11 c 0
 256 -13 250 -13 242 -11 c 0
 223 -7 209 7 205 26 c 0
 203 32 203 63 203 260 c 0
 203 417 203 488 204 493 c 0
 206 506 215 519 227 526 c 0
 242 536 264 536 279 526 c 0
 291 519 300 506 302 493 c 0
 303 489 303 486 303 486 c 1
 303 486 307 489 311 493 c 0
 328 507 346 517 367 523 c 0
 380 528 408 533 425 535 c 0
EndSplineSet
EndChar
StartChar: s
Encoding: 115 115 115
Width: 723
Flags: W
Fore
327 541 m 0
 344 542 397 541 411 540 c 0
 438 536 460 530 482 519 c 0
 517 501 541 475 553 440 c 0
 558 424 557 411 550 397 c 0
 546 390 536 380 528 377 c 1
 523 374 512 371 507 371 c 0
 501 371 490 374 485 377 c 2
 481 378 476 382 472 385 c 1
 466 391 462 398 457 410 c 0
 453 424 433 435 406 440 c 0
 395 442 351 443 331 441 c 0
 287 438 264 425 259 399 c 0
 254 376 266 353 288 341 c 0
 301 334 317 329 395 309 c 0
 468 289 493 279 517 264 c 0
 544 245 563 220 571 187 c 0
 578 159 577 131 569 104 c 0
 565 89 560 78 551 65 c 0
 526 27 488 4 435 -7 c 0
 385 -18 327 -19 279 -9 c 0
 259 -5 246 0 229 8 c 0
 201 22 179 41 163 66 c 0
 154 80 151 92 153 105 c 0
 160 142 202 159 232 137 c 0
 236 134 240 129 245 122 c 0
 249 117 255 110 258 107 c 0
 277 90 310 83 362 84 c 0
 397 85 426 91 444 100 c 0
 455 105 466 115 470 124 c 0
 480 141 477 167 466 178 c 0
 460 183 444 190 426 196 c 0
 418 199 391 206 368 213 c 0
 267 240 251 245 225 263 c 0
 197 281 177 308 166 341 c 0
 146 401 166 468 215 504 c 0
 244 526 277 537 327 541 c 0
EndSplineSet
EndChar
StartChar: t
Encoding: 116 116 116
Width: 723
Flags: W
Fore
293 674 m 0
 301 676 306 676 314 675 c 0
 334 670 350 654 353 634 c 0
 354 628 354 614 354 576 c 2
 353 525 l 1
 429 525 l 2
 510 525 512 525 523 520 c 0
 550 506 559 472 542 447 c 0
 537 440 530 434 523 430 c 0
 512 425 511 425 428 425 c 2
 351 425 l 1
 351 414 l 2
 349 392 349 161 350 148 c 0
 351 135 355 120 358 112 c 0
 366 96 381 88 408 87 c 0
 430 86 453 91 475 100 c 0
 490 106 497 108 508 106 c 0
 527 103 542 90 548 72 c 0
 554 53 548 31 533 19 c 0
 523 11 500 1 477 -5 c 0
 433 -16 388 -15 353 -4 c 0
 340 0 319 11 309 19 c 0
 276 43 257 82 251 136 c 0
 250 145 250 174 250 263 c 2
 250 402 l 1
 251 425 l 1
 212 425 l 2
 189 425 171 425 167 426 c 0
 154 428 142 437 135 448 c 0
 116 478 133 518 167 524 c 0
 171 525 189 525 213 525 c 2
 253 525 l 1
 253 551 l 2
 254 565 254 588 254 603 c 0
 254 622 254 631 255 636 c 0
 259 655 275 670 293 674 c 0
EndSplineSet
EndChar
StartChar: u
Encoding: 117 117 117
Width: 723
Flags: W
Fore
169 533 m 0
 180 535 193 532 202 526 c 0
 214 519 223 506 225 493 c 0
 226 489 226 442 226 347 c 0
 226 265 226 201 227 193 c 0
 231 141 248 110 282 94 c 0
 308 83 350 81 376 89 c 0
 386 93 405 103 416 111 c 0
 435 124 455 147 471 171 c 0
 477 182 489 205 493 216 c 2
 496 223 l 1
 496 355 l 2
 496 445 496 489 497 493 c 0
 499 506 508 519 520 526 c 0
 535 536 557 536 572 526 c 0
 584 519 593 506 595 493 c 0
 596 488 596 417 596 260 c 0
 596 63 596 32 594 26 c 0
 590 7 576 -7 557 -11 c 0
 549 -13 543 -13 535 -11 c 0
 511 -6 496 14 496 40 c 2
 496 47 l 1
 487 40 l 2
 465 22 432 3 408 -5 c 0
 351 -24 277 -18 226 12 c 0
 176 40 144 87 132 150 c 0
 127 178 127 176 126 337 c 0
 126 441 126 487 127 492 c 0
 131 513 148 530 169 533 c 0
EndSplineSet
EndChar
StartChar: v
Encoding: 118 118 118
Width: 723
Flags: W
Fore
158 533 m 0
 179 536 200 525 209 506 c 1
 211 504 245 408 286 294 c 0
 352 107 360 87 361 87 c 0
 363 87 374 117 438 297 c 0
 479 411 514 507 515 510 c 1
 520 516 524 521 530 525 c 0
 564 547 607 523 607 484 c 0
 607 475 607 474 601 456 c 0
 562 346 444 16 442 13 c 0
 439 8 431 -1 425 -5 c 0
 423 -7 418 -9 414 -10 c 0
 409 -12 407 -12 366 -13 c 0
 337 -13 320 -13 316 -12 c 0
 298 -9 284 3 277 22 c 0
 275 27 239 129 195 250 c 0
 146 390 117 473 116 477 c 0
 112 503 131 529 158 533 c 0
EndSplineSet
EndChar
StartChar: w
Encoding: 119 119 119
Width: 723
Flags: W
Fore
158 533 m 0
 185 537 210 518 214 492 c 0
 215 488 224 413 234 326 c 0
 245 238 254 167 254 169 c 1
 255 170 263 199 273 234 c 0
 284 269 293 299 295 302 c 0
 300 312 311 322 323 326 c 0
 328 328 331 328 358 329 c 0
 390 329 396 329 407 323 c 0
 414 320 425 309 428 302 c 0
 430 299 439 268 450 233 c 2
 469 169 l 1
 489 330 l 2
 500 418 509 493 509 495 c 1
 512 507 520 519 530 525 c 0
 557 543 593 531 604 501 c 0
 609 490 610 502 580 257 c 0
 561 94 552 27 551 22 c 0
 546 5 530 -9 513 -12 c 0
 505 -13 454 -13 446 -12 c 0
 432 -9 417 2 411 14 c 0
 409 18 398 56 385 100 c 0
 369 154 361 179 361 177 c 1
 360 176 350 140 337 97 c 0
 324 54 313 17 311 14 c 0
 306 4 295 -6 283 -10 c 0
 278 -12 275 -12 248 -13 c 0
 228 -13 216 -13 211 -12 c 0
 195 -9 181 1 175 15 c 0
 173 19 171 24 171 25 c 1
 170 26 158 130 142 256 c 0
 116 473 115 484 116 491 c 0
 119 513 136 530 158 533 c 0
EndSplineSet
EndChar
StartChar: x
Encoding: 120 120 120
Width: 723
Flags: W
Fore
200 533 m 0
 216 536 233 529 244 517 c 0
 246 515 274 475 305 429 c 2
 361 345 l 1
 369 356 l 2
 426 441 476 515 480 519 c 0
 496 535 523 538 543 525 c 0
 562 512 569 488 562 467 c 0
 560 462 542 435 494 363 c 0
 457 310 428 265 428 264 c 1
 429 264 460 218 499 163 c 0
 537 108 570 62 571 59 c 0
 587 28 566 -9 531 -13 c 0
 518 -14 502 -8 492 1 c 0
 490 3 460 45 427 92 c 0
 394 140 365 180 364 182 c 2
 361 186 l 1
 299 97 l 2
 265 48 235 5 232 3 c 1
 217 -13 195 -17 174 -7 c 0
 148 5 139 39 155 64 c 2
 227 167 l 2
 270 229 295 265 294 266 c 1
 294 267 265 310 229 363 c 0
 194 415 164 459 163 462 c 0
 158 471 157 483 159 494 c 0
 163 514 180 529 200 533 c 0
EndSplineSet
EndChar
StartChar: y
Encoding: 121 121 121
Width: 723
Flags: W
Fore
155 533 m 0
 171 535 189 529 199 517 c 0
 201 515 240 449 285 372 c 2
 366 231 l 1
 407 305 l 1
 483 446 l 2
 517 507 520 513 526 519 c 0
 545 538 576 538 595 519 c 0
 605 509 610 498 610 483 c 0
 610 478 609 473 608 469 c 0
 606 462 289 -121 282 -130 c 0
 276 -139 261 -153 252 -160 c 0
 225 -178 192 -186 163 -182 c 0
 143 -179 132 -173 123 -161 c 0
 102 -134 114 -95 146 -84 c 0
 153 -81 163 -81 176 -82 c 0
 181 -83 184 -83 188 -82 c 0
 199 -78 197 -80 256 28 c 2
 310 129 l 1
 310 130 267 204 214 295 c 0
 162 385 118 462 116 464 c 1
 103 493 123 528 155 533 c 0
EndSplineSet
EndChar
StartChar: z
Encoding: 122 122 122
Width: 723
Flags: W
Fore
194 520 m 0
 203 523 514 523 523 520 c 0
 542 516 556 502 560 483 c 0
 563 474 563 431 561 422 c 0
 558 410 555 405 525 372 c 2
 388 220 l 1
 278 99 l 1
 411 98 l 2
 560 97 548 98 561 91 c 0
 573 83 582 70 584 56 c 0
 587 36 577 14 558 4 c 0
 546 -2 556 -2 366 -2 c 0
 175 -2 185 -2 173 4 c 0
 160 11 150 24 147 38 c 0
 145 47 145 84 148 93 c 1
 149 101 154 109 159 115 c 0
 161 117 224 187 299 270 c 2
 435 422 l 1
 315 422 l 1
 196 423 l 1
 189 425 l 2
 172 431 161 443 157 460 c 0
 152 477 157 494 170 507 c 0
 177 514 184 518 194 520 c 0
EndSplineSet
EndChar
StartChar: braceleft
Encoding: 123 123 123
Width: 723
Flags: W
Fore
476 770 m 0
 488 771 562 770 570 769 c 0
 593 765 610 744 610 720 c 0
 610 698 597 681 576 673 c 0
 571 671 569 671 523 670 c 0
 471 670 466 670 447 665 c 0
 428 659 411 649 402 637 c 0
 397 630 391 618 389 609 c 0
 385 592 384 581 383 538 c 0
 382 488 380 473 374 450 c 0
 367 423 355 402 338 383 c 1
 332 378 l 1
 339 370 l 2
 362 344 375 310 381 269 c 0
 382 261 382 241 383 214 c 0
 384 163 386 151 393 134 c 0
 405 105 429 90 465 86 c 0
 480 85 495 85 531 86 c 0
 565 88 571 87 582 82 c 0
 609 69 618 35 602 10 c 0
 595 -1 582 -10 569 -12 c 0
 559 -13 493 -15 477 -15 c 0
 450 -13 425 -9 406 -3 c 0
 393 1 371 13 360 21 c 0
 349 29 330 48 322 59 c 0
 301 88 290 119 285 163 c 0
 284 168 283 191 283 215 c 0
 282 258 281 267 276 281 c 0
 270 302 257 315 236 321 c 0
 222 326 209 327 181 328 c 0
 153 329 149 330 139 335 c 0
 129 339 120 350 116 361 c 0
 107 384 117 412 140 423 c 0
 149 427 153 428 183 429 c 0
 211 430 222 431 237 436 c 0
 258 442 270 453 276 472 c 0
 281 487 282 495 283 538 c 0
 284 581 285 600 290 621 c 0
 301 679 335 723 385 748 c 0
 411 760 438 767 476 770 c 0
EndSplineSet
EndChar
StartChar: bar
Encoding: 124 124 124
Width: 723
Flags: W
Fore
352 769 m 0
 360 770 362 770 369 769 c 0
 389 766 405 750 410 730 c 0
 412 720 412 -111 410 -121 c 0
 404 -147 379 -164 354 -160 c 0
 333 -157 317 -141 312 -121 c 0
 310 -111 310 720 312 730 c 0
 317 749 333 766 352 769 c 0
EndSplineSet
EndChar
StartChar: braceright
Encoding: 125 125 125
Width: 723
Flags: W
Fore
171 770 m 0
 229 772 263 770 294 763 c 0
 364 746 412 702 430 636 c 0
 437 611 439 590 440 537 c 0
 441 499 441 495 443 484 c 0
 450 451 466 438 505 431 c 0
 509 431 525 430 540 429 c 0
 570 428 574 427 582 423 c 0
 612 409 620 369 597 344 c 0
 592 339 582 333 575 331 c 0
 569 329 564 329 542 328 c 0
 513 327 502 326 488 321 c 0
 461 313 449 298 443 266 c 0
 441 258 441 250 440 215 c 0
 439 162 437 145 430 120 c 0
 422 88 407 62 384 39 c 0
 370 25 358 16 340 7 c 0
 312 -7 285 -13 246 -15 c 0
 229 -15 164 -13 154 -12 c 0
 141 -10 128 -2 121 9 c 0
 101 40 118 80 155 86 c 0
 161 87 169 87 192 86 c 0
 228 85 243 85 258 86 c 0
 294 90 318 105 330 134 c 0
 337 151 339 163 340 214 c 0
 341 241 341 261 342 269 c 0
 348 310 361 344 384 370 c 2
 391 378 l 1
 384 384 l 2
 361 410 348 442 342 483 c 1
 342 491 341 512 340 537 c 0
 339 580 338 593 334 609 c 0
 332 618 326 630 321 637 c 0
 312 649 295 659 277 665 c 0
 257 670 252 670 201 670 c 0
 151 671 150 671 140 676 c 0
 113 689 104 723 121 748 c 0
 127 757 138 765 149 768 c 0
 151 769 161 770 171 770 c 0
EndSplineSet
EndChar
StartChar: asciitilde
Encoding: 126 126 126
Width: 723
Flags: W
Fore
251 718 m 0
 262 719 283 718 295 716 c 0
 310 713 321 709 337 702 c 0
 352 694 365 686 389 668 c 0
 418 646 430 638 443 635 c 0
 454 631 469 633 479 640 c 0
 489 646 494 654 498 668 c 0
 501 679 504 685 512 692 c 0
 539 720 585 707 594 669 c 0
 597 661 596 652 594 641 c 0
 585 608 567 582 541 562 c 0
 502 532 451 525 404 543 c 0
 383 551 364 562 331 587 c 0
 310 602 302 607 292 612 c 0
 279 619 267 621 255 617 c 0
 239 612 230 602 225 584 c 0
 224 580 222 575 221 573 c 0
 203 539 156 536 135 567 c 0
 127 580 125 595 129 612 c 0
 145 670 192 711 251 718 c 0
EndSplineSet
EndChar
StartChar: sfthyphen
Encoding: 127 173 127
Width: 723
Flags: W
Fore
262 426 m 0
 269 428 282 429 289 426 c 1
 305 422 317 410 323 394 c 0
 325 389 325 387 325 350 c 0
 325 313 325 311 323 306 c 0
 315 285 297 272 276 272 c 0
 255 272 237 285 229 306 c 0
 227 311 227 313 227 350 c 0
 227 387 227 389 229 394 c 0
 235 410 246 421 262 426 c 0
433 426 m 0
 440 428 453 429 460 426 c 1
 476 422 488 410 494 394 c 0
 496 389 496 387 496 350 c 0
 496 313 496 311 494 306 c 0
 486 285 468 272 447 272 c 0
 426 272 408 285 400 306 c 0
 398 311 398 313 398 350 c 0
 398 387 398 389 400 394 c 0
 406 410 417 421 433 426 c 0
EndSplineSet
EndChar
StartChar: Abreve
Encoding: 128 258 128
Width: 723
Flags: W
Fore
265 711 m 0
 273 713 278 713 286 712 c 0
 305 708 321 692 325 673 c 0
 327 664 327 605 325 596 c 0
 319 570 294 553 269 557 c 0
 249 560 232 576 227 596 c 0
 225 605 225 664 227 673 c 0
 231 692 247 707 265 711 c 0
436 711 m 0
 444 713 449 713 457 712 c 0
 476 708 492 692 496 673 c 0
 497 668 497 658 497 635 c 0
 497 611 497 601 496 596 c 0
 490 570 465 553 440 557 c 0
 425 559 410 569 403 583 c 0
 398 593 397 599 397 635 c 0
 397 670 398 676 403 686 c 0
 410 699 423 709 436 711 c 0
334 540 m 0
 370 544 416 540 448 529 c 0
 514 506 555 455 569 378 c 0
 574 352 574 352 574 187 c 0
 574 58 574 31 572 26 c 1
 568 7 554 -7 535 -11 c 0
 527 -13 521 -13 513 -11 c 0
 490 -6 474 14 474 39 c 2
 474 45 l 1
 471 43 l 1
 462 34 436 17 420 9 c 0
 409 3 386 -5 373 -8 c 0
 322 -22 271 -17 227 5 c 0
 182 27 149 63 134 108 c 0
 127 128 125 148 127 170 c 0
 133 236 174 286 241 313 c 0
 282 329 326 334 438 337 c 2
 474 337 l 1
 474 344 l 2
 471 371 462 397 451 411 c 0
 439 426 423 434 398 439 c 0
 388 441 383 441 364 441 c 0
 343 441 339 441 329 439 c 0
 305 434 280 424 263 412 c 0
 246 400 244 399 239 397 c 0
 234 395 231 395 222 395 c 0
 213 395 211 395 205 397 c 0
 185 405 173 422 173 444 c 0
 172 465 181 477 209 496 c 0
 245 520 289 536 334 540 c 0
474 218 m 1
 474 237 l 1
 454 237 l 2
 424 237 382 235 359 234 c 0
 313 231 290 227 267 216 c 0
 240 202 226 181 226 155 c 0
 226 127 251 99 285 89 c 0
 315 79 353 85 385 104 c 0
 398 111 410 121 425 135 c 0
 440 151 451 165 465 184 c 2
 474 198 l 1
 474 218 l 1
EndSplineSet
EndChar
StartChar: Aogonek
Encoding: 129 260 129
Width: 723
Flags: W
Fore
265 711 m 0
 273 713 278 713 286 712 c 0
 305 708 321 692 325 673 c 0
 327 664 327 605 325 596 c 0
 319 570 294 553 269 557 c 0
 249 560 232 576 227 596 c 0
 225 605 225 664 227 673 c 0
 231 692 247 707 265 711 c 0
436 711 m 0
 444 713 449 713 457 712 c 0
 476 708 492 692 496 673 c 0
 497 668 497 658 497 635 c 0
 497 611 497 601 496 596 c 0
 490 570 465 553 440 557 c 0
 425 559 410 569 403 583 c 0
 398 593 397 599 397 635 c 0
 397 670 398 676 403 686 c 0
 410 699 423 709 436 711 c 0
334 540 m 0
 383 546 438 536 479 514 c 0
 500 503 521 487 536 471 c 0
 575 431 599 378 607 315 c 0
 617 241 606 167 578 113 c 0
 547 54 499 14 437 -5 c 0
 413 -12 391 -15 362 -15 c 0
 325 -15 297 -10 266 2 c 0
 189 33 136 102 119 191 c 0
 108 247 111 311 125 363 c 0
 155 464 231 529 334 540 c 0
394 439 m 0
 387 441 380 441 366 442 c 0
 341 442 329 440 310 434 c 0
 263 418 230 378 218 323 c 0
 214 305 213 293 212 272 c 0
 211 228 217 194 231 164 c 0
 248 128 276 103 312 91 c 0
 329 86 338 85 362 85 c 0
 385 85 394 86 411 91 c 0
 432 98 448 108 464 124 c 0
 490 150 506 189 510 237 c 0
 511 253 511 288 509 303 c 0
 502 347 488 378 464 403 c 0
 444 422 423 433 394 439 c 0
EndSplineSet
EndChar
StartChar: Cacute
Encoding: 130 262 130
Width: 723
Flags: W
Fore
265 711 m 0
 273 713 278 713 286 712 c 0
 305 708 321 692 325 673 c 0
 327 664 327 605 325 596 c 0
 319 570 294 553 269 557 c 0
 249 560 232 576 227 596 c 0
 225 605 225 664 227 673 c 0
 231 692 247 707 265 711 c 0
436 711 m 0
 444 713 449 713 457 712 c 0
 476 708 492 692 496 673 c 0
 497 668 497 658 497 635 c 0
 497 611 497 601 496 596 c 0
 490 570 465 553 440 557 c 0
 425 559 410 569 403 583 c 0
 398 593 397 599 397 635 c 0
 397 670 398 676 403 686 c 0
 410 699 423 709 436 711 c 0
169 533 m 0
 180 535 193 532 202 526 c 0
 214 519 223 506 225 493 c 0
 226 489 226 442 226 347 c 0
 226 265 226 201 227 193 c 0
 231 141 248 110 282 94 c 0
 308 83 350 81 376 89 c 0
 386 93 405 103 416 111 c 0
 435 124 455 147 471 171 c 0
 477 182 489 205 493 216 c 2
 496 223 l 1
 496 355 l 2
 496 445 496 489 497 493 c 0
 499 506 508 519 520 526 c 0
 535 536 557 536 572 526 c 0
 584 519 593 506 595 493 c 0
 596 488 596 417 596 260 c 0
 596 63 596 32 594 26 c 0
 590 7 576 -7 557 -11 c 0
 549 -13 543 -13 535 -11 c 0
 511 -6 496 14 496 40 c 2
 496 47 l 1
 487 40 l 2
 465 22 432 3 408 -5 c 0
 351 -24 277 -18 226 12 c 0
 176 40 144 87 132 150 c 0
 127 178 127 176 126 337 c 0
 126 441 126 487 127 492 c 0
 131 513 148 530 169 533 c 0
EndSplineSet
EndChar
StartChar: Ccaron
Encoding: 131 268 131
Width: 723
Flags: W
Fore
153 769 m 0
 161 770 163 770 170 769 c 0
 190 766 206 750 211 730 c 0
 213 720 213 661 210 652 c 0
 206 633 192 619 173 615 c 0
 165 613 159 613 151 615 c 0
 132 619 118 633 114 652 c 0
 111 661 111 720 113 730 c 0
 118 749 134 766 153 769 c 0
552 769 m 0
 560 770 562 770 569 769 c 0
 589 766 605 750 610 730 c 0
 612 720 612 661 609 652 c 0
 605 633 591 619 572 615 c 0
 564 613 558 613 550 615 c 0
 531 619 517 633 513 652 c 0
 510 661 510 720 512 730 c 0
 517 749 533 766 552 769 c 0
339 708 m 0
 347 710 374 710 383 709 c 0
 397 706 410 696 416 684 c 0
 418 681 455 560 513 364 c 0
 606 53 607 48 607 40 c 0
 607 15 589 -6 564 -9 c 0
 545 -12 523 -2 514 16 c 0
 512 19 504 45 493 81 c 0
 484 114 475 141 475 141 c 2
 475 142 424 144 362 146 c 0
 263 150 250 150 250 149 c 1
 249 148 241 119 230 85 c 0
 220 51 211 20 209 17 c 2
 208 14 204 9 200 5 c 0
 181 -15 150 -15 130 5 c 0
 120 15 114 30 115 44 c 1
 116 47 126 82 139 125 c 0
 153 175 161 202 161 205 c 0
 161 211 163 219 168 227 c 1
 170 232 189 296 237 456 c 0
 278 591 304 680 306 684 c 0
 312 695 325 705 339 708 c 0
404 381 m 0
 381 457 363 520 362 521 c 1
 361 523 361 523 360 518 c 2
 280 250 l 1
 281 249 444 243 445 243 c 1
 445 244 427 305 404 381 c 0
EndSplineSet
EndChar
StartChar: Dcaron
Encoding: 132 270 132
Width: 723
Flags: W
Fore
153 769 m 0
 161 770 163 770 170 769 c 0
 190 766 206 750 211 730 c 0
 213 720 213 661 210 652 c 0
 206 633 192 619 173 615 c 0
 165 613 159 613 151 615 c 0
 132 619 118 633 114 652 c 0
 111 661 111 720 113 730 c 0
 118 749 134 766 153 769 c 0
552 769 m 0
 560 770 562 770 569 769 c 0
 589 766 605 750 610 730 c 0
 612 720 612 661 609 652 c 0
 605 633 591 619 572 615 c 0
 564 613 558 613 550 615 c 0
 531 619 517 633 513 652 c 0
 510 661 510 720 512 730 c 0
 517 749 533 766 552 769 c 0
341 615 m 0
 384 619 430 609 468 586 c 0
 508 562 541 526 564 480 c 0
 570 467 581 440 585 424 c 0
 606 352 607 264 589 193 c 0
 564 96 510 29 433 0 c 0
 405 -10 371 -15 346 -12 c 0
 307 -8 273 4 243 24 c 0
 196 55 162 104 141 167 c 0
 112 257 115 371 149 456 c 0
 158 480 165 493 179 514 c 0
 218 572 277 608 341 615 c 0
388 513 m 0
 375 516 353 517 341 514 c 0
 319 509 302 500 284 484 c 0
 252 455 231 408 223 347 c 0
 221 330 220 294 222 274 c 0
 227 198 255 136 297 108 c 0
 321 91 351 84 378 89 c 0
 422 96 458 127 479 178 c 0
 496 216 503 261 502 313 c 0
 501 354 494 389 481 420 c 0
 462 469 428 502 388 513 c 0
EndSplineSet
EndChar
StartChar: Ecaron
Encoding: 133 282 133
Width: 723
Flags: W
Fore
151 769 m 0
 156 770 166 770 191 770 c 0
 222 769 224 769 229 767 c 0
 250 760 263 741 263 720 c 0
 263 699 250 680 229 673 c 0
 224 671 221 671 192 670 c 0
 171 670 159 670 154 671 c 0
 130 675 113 696 113 720 c 0
 113 743 129 763 151 769 c 0
500 769 m 0
 507 770 562 770 570 769 c 0
 583 767 595 758 602 747 c 0
 618 722 609 688 583 675 c 0
 572 671 567 670 535 670 c 0
 519 670 504 670 500 671 c 0
 487 673 473 683 467 694 c 0
 452 719 461 752 487 764 c 0
 491 766 497 768 500 769 c 0
151 583 m 0
 159 585 164 585 172 584 c 0
 185 581 198 572 205 561 c 0
 212 548 211 562 212 389 c 0
 213 224 213 225 217 198 c 0
 228 138 251 110 304 95 c 0
 323 89 333 88 362 88 c 0
 390 88 400 89 420 95 c 0
 472 110 495 138 506 201 c 0
 510 226 510 229 511 390 c 0
 512 562 511 548 518 561 c 0
 526 572 539 582 553 584 c 0
 579 588 604 571 610 545 c 0
 611 540 611 516 611 398 c 0
 611 318 611 250 610 240 c 0
 608 198 603 167 593 138 c 0
 577 86 548 49 504 23 c 0
 423 -25 300 -25 219 23 c 0
 184 43 160 70 142 106 c 0
 125 141 116 182 113 240 c 0
 112 249 112 318 112 398 c 0
 112 553 112 546 118 558 c 0
 125 570 138 581 151 583 c 0
EndSplineSet
EndChar
StartChar: Eogonek
Encoding: 134 280 134
Width: 723
Flags: W
Fore
341 769 m 0
 367 771 397 770 422 766 c 0
 486 756 534 722 561 670 c 0
 569 654 573 642 573 632 c 0
 573 603 549 580 520 582 c 0
 500 584 484 597 476 617 c 0
 466 644 444 660 409 667 c 0
 399 669 395 669 369 669 c 0
 338 669 328 668 309 663 c 0
 297 659 279 651 271 645 c 0
 254 632 246 615 246 591 c 0
 246 567 255 553 276 542 c 0
 293 534 309 531 376 525 c 0
 444 519 470 514 497 505 c 0
 552 484 587 444 597 393 c 0
 599 380 599 356 597 343 c 0
 592 319 581 295 565 274 c 0
 559 267 559 268 566 261 c 0
 589 232 602 190 598 150 c 0
 593 88 556 37 497 11 c 0
 460 -6 421 -12 366 -12 c 0
 327 -12 298 -9 271 -2 c 0
 212 13 165 51 140 103 c 0
 132 119 130 127 130 137 c 0
 130 177 175 200 208 177 c 0
 215 172 220 165 227 152 c 0
 234 138 239 130 248 121 c 0
 261 108 274 101 292 95 c 0
 311 90 336 87 366 87 c 0
 444 87 487 107 497 148 c 0
 504 175 493 200 469 213 c 0
 448 224 428 227 354 233 c 0
 295 237 275 239 252 244 c 0
 197 257 156 287 135 329 c 0
 109 381 120 440 167 493 c 2
 173 501 l 1
 170 506 l 2
 155 529 146 561 146 591 c 0
 146 611 151 636 157 654 c 0
 183 719 250 762 341 769 c 0
266 440 m 0
 262 441 258 442 257 442 c 0
 255 442 237 424 233 417 c 0
 231 414 227 407 225 403 c 0
 222 396 222 395 222 387 c 0
 222 379 222 378 225 372 c 0
 235 353 263 341 308 336 c 0
 313 335 334 334 354 332 c 0
 413 328 434 326 457 321 c 2
 469 319 l 1
 475 324 l 2
 487 334 496 347 498 359 c 0
 499 362 499 368 499 372 c 0
 497 397 472 413 423 420 c 0
 416 421 390 424 365 426 c 0
 306 431 286 434 266 440 c 0
EndSplineSet
EndChar
StartChar: Gbreve
Encoding: 135 286 135
Width: 723
Flags: W
Fore
155 627 m 2
 166 627 l 2
 173 627 184 623 190 619 c 0
 193 617 208 603 222 588 c 2
 249 561 l 1
 253 563 l 2
 272 575 303 586 330 591 c 0
 346 593 376 593 392 591 c 0
 419 586 450 575 469 563 c 2
 473 561 l 1
 502 589 l 2
 519 606 532 619 535 620 c 1
 554 631 579 629 595 614 c 0
 611 598 615 571 603 552 c 0
 601 549 587 534 572 518 c 2
 544 490 l 1
 549 480 l 2
 562 459 570 435 574 409 c 0
 576 393 576 363 574 347 c 0
 570 322 561 297 550 276 c 2
 544 267 l 1
 572 238 l 2
 588 222 602 207 603 205 c 0
 618 179 609 148 583 135 c 0
 568 128 554 128 540 134 c 0
 533 137 530 140 503 166 c 2
 474 195 l 1
 470 193 l 2
 455 184 432 175 415 170 c 0
 382 162 348 161 314 169 c 0
 294 173 271 182 255 191 c 2
 249 195 l 1
 221 168 l 1
 189 137 l 1
 167 124 138 129 123 149 c 0
 111 165 109 184 118 201 c 0
 121 208 124 211 150 237 c 2
 178 266 l 1
 173 276 l 2
 138 338 137 414 170 477 c 0
 173 482 176 488 177 489 c 1
 178 491 177 492 149 520 c 0
 123 547 120 550 117 557 c 0
 108 577 112 599 129 614 c 0
 135 620 146 626 155 627 c 2
390 490 m 0
 381 492 377 492 364 493 c 0
 354 493 346 492 342 492 c 0
 296 483 260 449 249 406 c 0
 247 396 247 393 247 378 c 0
 247 363 247 360 249 351 c 0
 254 330 267 309 281 295 c 0
 306 273 334 262 366 263 c 0
 383 264 395 267 411 274 c 0
 434 286 451 303 463 325 c 0
 480 357 480 395 465 428 c 0
 450 458 422 481 390 490 c 0
EndSplineSet
EndChar
StartChar: Lacute
Encoding: 136 313 136
Width: 723
Flags: W
Fore
45 689 m 0
 70 695 94 681 104 657 c 2
 107 651 l 1
 107 288 l 2
 107 -33 107 -76 106 -82 c 0
 102 -99 90 -112 74 -118 c 0
 69 -120 66 -120 57 -120 c 0
 48 -120 45 -120 41 -118 c 0
 24 -112 12 -99 8 -82 c 0
 7 -76 7 -33 7 288 c 2
 8 651 l 1
 10 657 l 2
 17 673 29 685 45 689 c 0
EndSplineSet
EndChar
StartChar: Lcaron
Encoding: 137 317 137
Width: 723
Flags: W
Fore
200 765 m 0
 209 767 242 767 250 765 c 0
 270 761 285 745 288 725 c 0
 289 718 289 713 275 608 c 0
 267 547 261 494 260 491 c 0
 258 480 253 470 246 463 c 0
 226 444 196 443 177 462 c 1
 173 465 169 471 167 474 c 0
 161 486 161 479 161 605 c 0
 161 702 161 722 162 727 c 0
 166 746 182 761 200 765 c 0
490 765 m 0
 498 767 524 767 533 766 c 0
 555 762 573 741 573 719 c 0
 573 712 552 505 550 491 c 0
 548 480 543 470 536 463 c 0
 508 435 460 449 452 488 c 0
 451 491 451 528 451 607 c 0
 451 702 451 722 452 727 c 0
 456 746 472 761 490 765 c 0
EndSplineSet
EndChar
